<?xml version="1.0" encoding="utf-8" standalone="no"?>
<!DOCTYPE svg PUBLIC "-//W3C//DTD SVG 1.1//EN"
  "http://www.w3.org/Graphics/SVG/1.1/DTD/svg11.dtd">
<svg xmlns:xlink="http://www.w3.org/1999/xlink" width="518.4pt" height="345.6pt" viewBox="0 0 518.4 345.6" xmlns="http://www.w3.org/2000/svg" version="1.1">
 <metadata>
  <rdf:RDF xmlns:dc="http://purl.org/dc/elements/1.1/" xmlns:cc="http://creativecommons.org/ns#" xmlns:rdf="http://www.w3.org/1999/02/22-rdf-syntax-ns#">
   <cc:Work>
    <dc:type rdf:resource="http://purl.org/dc/dcmitype/StillImage"/>
    <dc:date>2026-05-15T06:22:17.501718</dc:date>
    <dc:format>image/svg+xml</dc:format>
    <dc:creator>
     <cc:Agent>
      <dc:title>Matplotlib v3.10.8, https://matplotlib.org/</dc:title>
     </cc:Agent>
    </dc:creator>
   </cc:Work>
  </rdf:RDF>
 </metadata>
 <defs>
  <style type="text/css">*{stroke-linejoin: round; stroke-linecap: butt}</style>
 </defs>
 <g id="figure_1">
  <g id="patch_1">
   <path d="M 0 345.6 
L 518.4 345.6 
L 518.4 0 
L 0 0 
z
" style="fill: #ffffff"/>
  </g>
  <g id="axes_1">
   <g id="patch_2">
    <path d="M 40.54274 143.31476 
L 253.730634 143.31476 
L 253.730634 13.838834 
L 40.54274 13.838834 
z
" style="fill: #ffffff"/>
   </g>
   <g id="matplotlib.axis_1">
    <g id="xtick_1">
     <g id="line2d_1">
      <defs>
       <path id="mdb7a405348" d="M 0 0 
L 0 3.5 
" style="stroke: #000000; stroke-width: 0.8"/>
      </defs>
      <g>
       <use xlink:href="#mdb7a405348" x="50.103808" y="143.31476" style="stroke: #000000; stroke-width: 0.8"/>
      </g>
     </g>
     <g id="text_1">
      <text style="font-size: 8px; font-family: 'DejaVu Sans'; text-anchor: middle" x="50.103808" y="156.39351" transform="rotate(-0 50.103808 156.39351)">0</text>
     </g>
    </g>
    <g id="xtick_2">
     <g id="line2d_2">
      <g>
       <use xlink:href="#mdb7a405348" x="82.426552" y="143.31476" style="stroke: #000000; stroke-width: 0.8"/>
      </g>
     </g>
     <g id="text_2">
      <text style="font-size: 8px; font-family: 'DejaVu Sans'; text-anchor: middle" x="82.426552" y="156.39351" transform="rotate(-0 82.426552 156.39351)">250</text>
     </g>
    </g>
    <g id="xtick_3">
     <g id="line2d_3">
      <g>
       <use xlink:href="#mdb7a405348" x="114.749297" y="143.31476" style="stroke: #000000; stroke-width: 0.8"/>
      </g>
     </g>
     <g id="text_3">
      <text style="font-size: 8px; font-family: 'DejaVu Sans'; text-anchor: middle" x="114.749297" y="156.39351" transform="rotate(-0 114.749297 156.39351)">500</text>
     </g>
    </g>
    <g id="xtick_4">
     <g id="line2d_4">
      <g>
       <use xlink:href="#mdb7a405348" x="147.072041" y="143.31476" style="stroke: #000000; stroke-width: 0.8"/>
      </g>
     </g>
     <g id="text_4">
      <text style="font-size: 8px; font-family: 'DejaVu Sans'; text-anchor: middle" x="147.072041" y="156.39351" transform="rotate(-0 147.072041 156.39351)">750</text>
     </g>
    </g>
    <g id="xtick_5">
     <g id="line2d_5">
      <g>
       <use xlink:href="#mdb7a405348" x="179.394786" y="143.31476" style="stroke: #000000; stroke-width: 0.8"/>
      </g>
     </g>
     <g id="text_5">
      <text style="font-size: 8px; font-family: 'DejaVu Sans'; text-anchor: middle" x="179.394786" y="156.39351" transform="rotate(-0 179.394786 156.39351)">1000</text>
     </g>
    </g>
    <g id="xtick_6">
     <g id="line2d_6">
      <g>
       <use xlink:href="#mdb7a405348" x="211.71753" y="143.31476" style="stroke: #000000; stroke-width: 0.8"/>
      </g>
     </g>
     <g id="text_6">
      <text style="font-size: 8px; font-family: 'DejaVu Sans'; text-anchor: middle" x="211.71753" y="156.39351" transform="rotate(-0 211.71753 156.39351)">1250</text>
     </g>
    </g>
    <g id="xtick_7">
     <g id="line2d_7">
      <g>
       <use xlink:href="#mdb7a405348" x="244.040275" y="143.31476" style="stroke: #000000; stroke-width: 0.8"/>
      </g>
     </g>
     <g id="text_7">
      <text style="font-size: 8px; font-family: 'DejaVu Sans'; text-anchor: middle" x="244.040275" y="156.39351" transform="rotate(-0 244.040275 156.39351)">1500</text>
     </g>
    </g>
    <g id="text_8">
     <text style="font-size: 8px; font-family: 'DejaVu Sans'; text-anchor: middle" x="147.136687" y="168.13601" transform="rotate(-0 147.136687 168.13601)">Epoch</text>
    </g>
   </g>
   <g id="matplotlib.axis_2">
    <g id="ytick_1">
     <g id="line2d_8">
      <path d="M 40.54274 116.717774 
L 253.730634 116.717774 
" clip-path="url(#pa1a214b3d8)" style="fill: none; stroke: #e5e5e5; stroke-width: 0.6; stroke-linecap: square"/>
     </g>
     <g id="line2d_9">
      <defs>
       <path id="m46963b0bf6" d="M 0 0 
L -3.5 0 
" style="stroke: #000000; stroke-width: 0.8"/>
      </defs>
      <g>
       <use xlink:href="#m46963b0bf6" x="40.54274" y="116.717774" style="stroke: #000000; stroke-width: 0.8"/>
      </g>
     </g>
     <g id="text_9">
      <!-- $\mathdefault{10^{-1}}$ -->
      <g transform="translate(14.74274 119.757149)">
       <text>
        <tspan x="0" y="-0.857813" style="font-size: 8px; font-family: 'DejaVu Sans'">1</tspan>
        <tspan x="5.089844" y="-0.857813" style="font-size: 8px; font-family: 'DejaVu Sans'">0</tspan>
        <tspan x="10.25625" y="-3.920313" style="font-size: 5.6px; font-family: 'DejaVu Sans'">−</tspan>
        <tspan x="14.948437" y="-3.920313" style="font-size: 5.6px; font-family: 'DejaVu Sans'">1</tspan>
       </text>
      </g>
     </g>
    </g>
    <g id="ytick_2">
     <g id="line2d_10">
      <defs>
       <path id="m0ccebd7de1" d="M 0 0 
L -2 0 
" style="stroke: #000000; stroke-width: 0.6"/>
      </defs>
      <g>
       <use xlink:href="#m0ccebd7de1" x="40.54274" y="142.385878" style="stroke: #000000; stroke-width: 0.6"/>
      </g>
     </g>
    </g>
    <g id="ytick_3">
     <g id="line2d_11">
      <g>
       <use xlink:href="#m0ccebd7de1" x="40.54274" y="134.640073" style="stroke: #000000; stroke-width: 0.6"/>
      </g>
     </g>
    </g>
    <g id="ytick_4">
     <g id="line2d_12">
      <g>
       <use xlink:href="#m0ccebd7de1" x="40.54274" y="127.930352" style="stroke: #000000; stroke-width: 0.6"/>
      </g>
     </g>
    </g>
    <g id="ytick_5">
     <g id="line2d_13">
      <g>
       <use xlink:href="#m0ccebd7de1" x="40.54274" y="122.011958" style="stroke: #000000; stroke-width: 0.6"/>
      </g>
     </g>
    </g>
    <g id="ytick_6">
     <g id="line2d_14">
      <g>
       <use xlink:href="#m0ccebd7de1" x="40.54274" y="81.888328" style="stroke: #000000; stroke-width: 0.6"/>
      </g>
     </g>
    </g>
    <g id="ytick_7">
     <g id="line2d_15">
      <g>
       <use xlink:href="#m0ccebd7de1" x="40.54274" y="61.514407" style="stroke: #000000; stroke-width: 0.6"/>
      </g>
     </g>
    </g>
    <g id="ytick_8">
     <g id="line2d_16">
      <g>
       <use xlink:href="#m0ccebd7de1" x="40.54274" y="47.058881" style="stroke: #000000; stroke-width: 0.6"/>
      </g>
     </g>
    </g>
    <g id="ytick_9">
     <g id="line2d_17">
      <g>
       <use xlink:href="#m0ccebd7de1" x="40.54274" y="35.846304" style="stroke: #000000; stroke-width: 0.6"/>
      </g>
     </g>
    </g>
    <g id="ytick_10">
     <g id="line2d_18">
      <g>
       <use xlink:href="#m0ccebd7de1" x="40.54274" y="26.684961" style="stroke: #000000; stroke-width: 0.6"/>
      </g>
     </g>
    </g>
    <g id="ytick_11">
     <g id="line2d_19">
      <g>
       <use xlink:href="#m0ccebd7de1" x="40.54274" y="18.939156" style="stroke: #000000; stroke-width: 0.6"/>
      </g>
     </g>
    </g>
    <g id="text_10">
     <text style="font-size: 8px; font-family: 'DejaVu Sans'; text-anchor: middle" x="9.07899" y="78.576797" transform="rotate(-90 9.07899 78.576797)">Action loss</text>
    </g>
   </g>
   <g id="line2d_20">
    <path d="M 50.233099 19.724103 
L 50.750263 26.198242 
L 51.396718 38.851838 
L 52.689627 43.875637 
L 53.982537 49.44886 
L 54.628992 55.102661 
L 55.275447 61.87413 
L 55.921902 66.974498 
L 56.568357 70.871093 
L 57.214812 73.130587 
L 57.861267 76.841723 
L 59.154176 79.878917 
L 59.800631 83.42144 
L 60.447086 84.449861 
L 61.093541 84.539832 
L 61.739996 86.834771 
L 62.386451 86.96246 
L 63.032906 88.428925 
L 63.679361 89.341453 
L 64.325815 88.736062 
L 64.97227 90.493993 
L 65.618725 88.557866 
L 66.26518 92.616468 
L 66.911635 90.175956 
L 67.55809 88.909113 
L 68.204545 92.013574 
L 68.851 91.649177 
L 69.497455 95.970061 
L 70.143909 95.184864 
L 70.790364 97.843305 
L 71.436819 94.887855 
L 72.729729 99.91482 
L 73.376184 97.940036 
L 74.022639 100.748926 
L 74.669094 98.801505 
L 75.315549 102.649391 
L 75.962003 100.457229 
L 76.608458 103.484201 
L 77.254913 99.976 
L 77.901368 104.561409 
L 78.547823 103.468757 
L 79.194278 102.653189 
L 79.840733 105.088861 
L 80.487188 97.791561 
L 81.780097 107.648638 
L 82.426552 106.095551 
L 83.073007 103.697027 
L 83.719462 108.92318 
L 84.365917 105.872342 
L 85.012372 101.60083 
L 85.658827 110.31045 
L 86.305282 106.303416 
L 86.951737 108.154582 
L 87.598191 105.072916 
L 88.244646 111.828206 
L 88.891101 112.0292 
L 90.184011 108.669953 
L 90.830466 111.587163 
L 91.476921 113.172675 
L 92.123376 112.470541 
L 92.769831 113.586437 
L 93.416285 111.696172 
L 94.06274 106.734101 
L 94.709195 114.57818 
L 95.35565 112.208027 
L 96.002105 113.951295 
L 96.64856 115.105815 
L 97.94147 116.113419 
L 98.587925 116.427176 
L 99.23438 115.540783 
L 99.880834 115.003729 
L 100.527289 109.577142 
L 101.173744 114.328403 
L 101.820199 114.71802 
L 102.466654 116.642458 
L 103.113109 117.964188 
L 103.759564 115.712875 
L 104.406019 117.656073 
L 105.052474 118.108625 
L 105.698928 113.586437 
L 106.345383 116.50217 
L 106.991838 117.820166 
L 107.638293 119.693445 
L 108.284748 120.089524 
L 108.931203 119.385172 
L 109.577658 116.677592 
L 110.224113 119.650812 
L 110.870568 114.376341 
L 111.517022 121.236335 
L 112.163477 121.583885 
L 112.809932 121.539618 
L 113.456387 118.91578 
L 114.102842 120.261773 
L 114.749297 122.449341 
L 115.395752 116.843552 
L 116.042207 121.478815 
L 116.688662 121.36294 
L 117.335116 120.019716 
L 117.981571 124.022498 
L 118.628026 124.179643 
L 119.274481 122.505692 
L 119.920936 123.796377 
L 120.567391 121.98963 
L 121.213846 124.460229 
L 121.860301 125.07953 
L 122.506756 124.518883 
L 123.15321 124.925467 
L 123.799665 125.778721 
L 124.44612 124.966899 
L 125.092575 122.618584 
L 125.73903 123.198313 
L 126.385485 124.518883 
L 127.03194 127.182225 
L 127.678395 125.598512 
L 128.32485 126.57941 
L 129.617759 124.115562 
L 130.264214 127.31855 
L 130.910669 128.075023 
L 131.557124 127.188413 
L 132.203579 128.384633 
L 132.850034 128.258031 
L 133.496489 128.467096 
L 134.142944 128.081323 
L 134.789398 127.145109 
L 135.435853 126.726371 
L 136.082308 127.773571 
L 136.728763 128.460748 
L 137.375218 127.880128 
L 138.021673 127.861308 
L 138.668128 129.202528 
L 139.314583 128.689786 
L 139.961038 128.657912 
L 140.607492 125.953539 
L 141.253947 129.981586 
L 141.900402 130.329554 
L 142.546857 127.349585 
L 143.193312 129.337994 
L 143.839767 129.447925 
L 144.486222 130.892695 
L 145.132677 126.61611 
L 145.779132 129.629514 
L 146.425587 130.29004 
L 147.072041 131.347797 
L 147.718496 131.213515 
L 148.364951 128.696163 
L 149.011406 131.712161 
L 149.657861 130.899358 
L 150.304316 129.532153 
L 150.950771 130.474704 
L 151.597226 130.270295 
L 152.243681 131.421806 
L 152.890135 129.988129 
L 153.53659 131.644487 
L 154.8295 131.902136 
L 155.475955 130.448282 
L 156.12241 130.84608 
L 156.768865 131.929334 
L 157.41532 130.812809 
L 158.061775 132.43517 
L 158.708229 132.552099 
L 159.354684 132.222646 
L 160.001139 132.024643 
L 161.294049 132.676203 
L 161.940504 132.304807 
L 162.586959 132.428301 
L 163.233414 131.990583 
L 163.879869 132.133789 
L 164.526323 132.690011 
L 165.819233 133.322335 
L 166.465688 133.238495 
L 167.112143 133.462381 
L 167.758598 132.352796 
L 168.405053 133.666142 
L 169.051508 132.994757 
L 169.697963 133.863665 
L 170.344417 133.399312 
L 170.990872 133.821273 
L 171.637327 133.336322 
L 172.283782 133.899019 
L 172.930237 134.03359 
L 173.576692 133.976885 
L 174.223147 134.353757 
L 174.869602 134.360895 
L 175.516057 133.602818 
L 176.162511 134.582679 
L 176.808966 134.225446 
L 177.455421 134.232565 
L 178.101876 134.418036 
L 178.748331 134.332349 
L 179.394786 134.690346 
L 180.041241 134.747863 
L 180.687696 134.425183 
L 181.334151 133.71545 
L 181.980605 134.769449 
L 182.62706 135.014739 
L 183.273515 134.755058 
L 183.91997 135.181352 
L 184.566425 134.805446 
L 185.21288 135.450547 
L 186.50579 135.166842 
L 187.152245 135.174097 
L 187.798699 135.050912 
L 188.445154 135.450547 
L 189.091609 135.319407 
L 190.384519 135.669876 
L 191.030974 134.956916 
L 191.677429 135.479735 
L 192.323884 135.545472 
L 193.616794 135.919612 
L 194.263248 135.743199 
L 194.909703 135.743199 
L 196.202613 136.067097 
L 196.849068 135.926976 
L 198.788433 136.229833 
L 200.081342 136.022806 
L 201.374252 136.266892 
L 202.020707 136.289141 
L 202.667162 136.126213 
L 203.313617 136.370803 
L 207.192346 136.482375 
L 207.838801 136.646463 
L 208.485256 136.512169 
L 210.424621 136.721226 
L 212.363985 136.751163 
L 216.242715 136.946185 
L 216.88917 136.991298 
L 218.182079 136.878592 
L 219.474989 137.059044 
L 220.767899 137.059044 
L 222.060809 137.051512 
L 222.707264 137.164607 
L 224.646628 137.111798 
L 225.939538 137.202362 
L 226.585993 137.15706 
L 227.878903 137.217472 
L 230.464722 137.29309 
L 231.111177 137.240146 
L 232.404087 137.315798 
L 238.222181 137.330942 
L 240.808001 137.376402 
L 244.040275 137.383983 
L 244.040275 137.383983 
" clip-path="url(#pa1a214b3d8)" style="fill: none; stroke: #0072b2; stroke-width: 1.6; stroke-linecap: square"/>
   </g>
   <g id="line2d_21">
    <path d="M 52.689627 20.396468 
L 55.275447 21.878281 
L 57.861267 24.880346 
L 60.447086 32.592364 
L 63.032906 43.30584 
L 65.618725 55.042251 
L 68.204545 66.48211 
L 70.790364 76.276825 
L 73.376184 84.270403 
L 75.962003 90.5895 
L 78.547823 95.375087 
L 81.133643 99.179327 
L 83.719462 102.022883 
L 86.305282 104.486508 
L 88.891101 106.508044 
L 91.476921 108.349886 
L 94.06274 109.935873 
L 96.64856 111.275075 
L 99.23438 112.52136 
L 101.820199 113.647851 
L 104.406019 114.693882 
L 106.991838 115.629214 
L 109.577658 116.517182 
L 112.163477 117.421125 
L 114.749297 118.409141 
L 117.335116 119.237025 
L 119.920936 120.207882 
L 122.506756 121.170407 
L 125.092575 122.101368 
L 127.678395 122.998632 
L 130.264214 123.796377 
L 132.850034 124.536492 
L 135.435853 125.162684 
L 138.021673 125.796777 
L 140.607492 126.298931 
L 143.193312 126.757042 
L 145.779132 127.231755 
L 148.364951 127.62352 
L 150.950771 128.030949 
L 153.53659 128.371959 
L 156.12241 128.740825 
L 158.708229 129.041733 
L 161.294049 129.312163 
L 163.879869 129.584055 
L 166.465688 129.844376 
L 169.051508 130.033955 
L 171.637327 130.270295 
L 174.223147 130.507751 
L 176.808966 130.772914 
L 179.394786 130.912687 
L 181.980605 131.106347 
L 184.566425 131.260473 
L 187.152245 131.475698 
L 189.738064 131.603926 
L 192.323884 131.739256 
L 194.909703 131.861367 
L 197.495523 131.983774 
L 200.081342 132.120133 
L 202.667162 132.243173 
L 205.252982 132.304807 
L 207.838801 132.407697 
L 210.424621 132.565873 
L 213.01044 132.600325 
L 215.59626 132.641699 
L 218.182079 132.690011 
L 220.767899 132.800614 
L 223.353718 132.869865 
L 225.939538 132.890658 
L 228.525358 132.966976 
L 231.111177 132.98781 
L 233.696997 133.029504 
L 236.282816 133.064276 
L 238.868636 133.099071 
L 241.454455 133.147826 
L 244.040275 133.133891 
" clip-path="url(#pa1a214b3d8)" style="fill: none; stroke: #d55e00; stroke-width: 1.4; stroke-linecap: square"/>
    <defs>
     <path id="m7ea965c3ea" d="M 0 1.2 
C 0.318244 1.2 0.623496 1.07356 0.848528 0.848528 
C 1.07356 0.623496 1.2 0.318244 1.2 0 
C 1.2 -0.318244 1.07356 -0.623496 0.848528 -0.848528 
C 0.623496 -1.07356 0.318244 -1.2 0 -1.2 
C -0.318244 -1.2 -0.623496 -1.07356 -0.848528 -0.848528 
C -1.07356 -0.623496 -1.2 -0.318244 -1.2 0 
C -1.2 0.318244 -1.07356 0.623496 -0.848528 0.848528 
C -0.623496 1.07356 -0.318244 1.2 0 1.2 
z
" style="stroke: #d55e00"/>
    </defs>
    <g clip-path="url(#pa1a214b3d8)">
     <use xlink:href="#m7ea965c3ea" x="52.689627" y="20.396468" style="fill: #d55e00; stroke: #d55e00"/>
     <use xlink:href="#m7ea965c3ea" x="68.204545" y="66.48211" style="fill: #d55e00; stroke: #d55e00"/>
     <use xlink:href="#m7ea965c3ea" x="83.719462" y="102.022883" style="fill: #d55e00; stroke: #d55e00"/>
     <use xlink:href="#m7ea965c3ea" x="99.23438" y="112.52136" style="fill: #d55e00; stroke: #d55e00"/>
     <use xlink:href="#m7ea965c3ea" x="114.749297" y="118.409141" style="fill: #d55e00; stroke: #d55e00"/>
     <use xlink:href="#m7ea965c3ea" x="130.264214" y="123.796377" style="fill: #d55e00; stroke: #d55e00"/>
     <use xlink:href="#m7ea965c3ea" x="145.779132" y="127.231755" style="fill: #d55e00; stroke: #d55e00"/>
     <use xlink:href="#m7ea965c3ea" x="161.294049" y="129.312163" style="fill: #d55e00; stroke: #d55e00"/>
     <use xlink:href="#m7ea965c3ea" x="176.808966" y="130.772914" style="fill: #d55e00; stroke: #d55e00"/>
     <use xlink:href="#m7ea965c3ea" x="192.323884" y="131.739256" style="fill: #d55e00; stroke: #d55e00"/>
     <use xlink:href="#m7ea965c3ea" x="207.838801" y="132.407697" style="fill: #d55e00; stroke: #d55e00"/>
     <use xlink:href="#m7ea965c3ea" x="223.353718" y="132.869865" style="fill: #d55e00; stroke: #d55e00"/>
     <use xlink:href="#m7ea965c3ea" x="238.868636" y="133.099071" style="fill: #d55e00; stroke: #d55e00"/>
    </g>
   </g>
   <g id="patch_3">
    <path d="M 40.54274 143.31476 
L 40.54274 13.838834 
" style="fill: none; stroke: #000000; stroke-width: 0.8; stroke-linejoin: miter; stroke-linecap: square"/>
   </g>
   <g id="patch_4">
    <path d="M 40.54274 143.31476 
L 253.730634 143.31476 
" style="fill: none; stroke: #000000; stroke-width: 0.8; stroke-linejoin: miter; stroke-linecap: square"/>
   </g>
   <g id="text_11">
    <text style="font-size: 9px; font-family: 'DejaVu Sans'; text-anchor: middle" x="147.136687" y="9.838834" transform="rotate(-0 147.136687 9.838834)">BC</text>
   </g>
   <g id="legend_1">
    <g id="line2d_22">
     <path d="M 187.766571 23.00774 
L 194.766571 23.00774 
L 201.766571 23.00774 
" style="fill: none; stroke: #0072b2; stroke-width: 1.6; stroke-linecap: square"/>
    </g>
    <g id="text_12">
     <text style="font-size: 7px; font-family: 'DejaVu Sans'; text-anchor: start" x="207.366571" y="25.45774" transform="rotate(-0 207.366571 25.45774)">train action</text>
    </g>
    <g id="line2d_23">
     <path d="M 187.766571 33.282427 
L 194.766571 33.282427 
L 201.766571 33.282427 
" style="fill: none; stroke: #d55e00; stroke-width: 1.4; stroke-linecap: square"/>
     <g>
      <use xlink:href="#m7ea965c3ea" x="194.766571" y="33.282427" style="fill: #d55e00; stroke: #d55e00"/>
     </g>
    </g>
    <g id="text_13">
     <text style="font-size: 7px; font-family: 'DejaVu Sans'; text-anchor: start" x="207.366571" y="35.732427" transform="rotate(-0 207.366571 35.732427)">val action</text>
    </g>
   </g>
  </g>
  <g id="axes_2">
   <g id="patch_5">
    <path d="M 297.763055 143.31476 
L 510.950949 143.31476 
L 510.950949 13.838834 
L 297.763055 13.838834 
z
" style="fill: #ffffff"/>
   </g>
   <g id="matplotlib.axis_3">
    <g id="xtick_8">
     <g id="line2d_24">
      <g>
       <use xlink:href="#mdb7a405348" x="307.304216" y="143.31476" style="stroke: #000000; stroke-width: 0.8"/>
      </g>
     </g>
     <g id="text_14">
      <text style="font-size: 8px; font-family: 'DejaVu Sans'; text-anchor: middle" x="307.304216" y="156.39351" transform="rotate(-0 307.304216 156.39351)">0</text>
     </g>
    </g>
    <g id="xtick_9">
     <g id="line2d_25">
      <g>
       <use xlink:href="#mdb7a405348" x="337.143658" y="143.31476" style="stroke: #000000; stroke-width: 0.8"/>
      </g>
     </g>
     <g id="text_15">
      <text style="font-size: 8px; font-family: 'DejaVu Sans'; text-anchor: middle" x="337.143658" y="156.39351" transform="rotate(-0 337.143658 156.39351)">200</text>
     </g>
    </g>
    <g id="xtick_10">
     <g id="line2d_26">
      <g>
       <use xlink:href="#mdb7a405348" x="366.983101" y="143.31476" style="stroke: #000000; stroke-width: 0.8"/>
      </g>
     </g>
     <g id="text_16">
      <text style="font-size: 8px; font-family: 'DejaVu Sans'; text-anchor: middle" x="366.983101" y="156.39351" transform="rotate(-0 366.983101 156.39351)">400</text>
     </g>
    </g>
    <g id="xtick_11">
     <g id="line2d_27">
      <g>
       <use xlink:href="#mdb7a405348" x="396.822543" y="143.31476" style="stroke: #000000; stroke-width: 0.8"/>
      </g>
     </g>
     <g id="text_17">
      <text style="font-size: 8px; font-family: 'DejaVu Sans'; text-anchor: middle" x="396.822543" y="156.39351" transform="rotate(-0 396.822543 156.39351)">600</text>
     </g>
    </g>
    <g id="xtick_12">
     <g id="line2d_28">
      <g>
       <use xlink:href="#mdb7a405348" x="426.661985" y="143.31476" style="stroke: #000000; stroke-width: 0.8"/>
      </g>
     </g>
     <g id="text_18">
      <text style="font-size: 8px; font-family: 'DejaVu Sans'; text-anchor: middle" x="426.661985" y="156.39351" transform="rotate(-0 426.661985 156.39351)">800</text>
     </g>
    </g>
    <g id="xtick_13">
     <g id="line2d_29">
      <g>
       <use xlink:href="#mdb7a405348" x="456.501427" y="143.31476" style="stroke: #000000; stroke-width: 0.8"/>
      </g>
     </g>
     <g id="text_19">
      <text style="font-size: 8px; font-family: 'DejaVu Sans'; text-anchor: middle" x="456.501427" y="156.39351" transform="rotate(-0 456.501427 156.39351)">1000</text>
     </g>
    </g>
    <g id="xtick_14">
     <g id="line2d_30">
      <g>
       <use xlink:href="#mdb7a405348" x="486.340869" y="143.31476" style="stroke: #000000; stroke-width: 0.8"/>
      </g>
     </g>
     <g id="text_20">
      <text style="font-size: 8px; font-family: 'DejaVu Sans'; text-anchor: middle" x="486.340869" y="156.39351" transform="rotate(-0 486.340869 156.39351)">1200</text>
     </g>
    </g>
    <g id="text_21">
     <text style="font-size: 8px; font-family: 'DejaVu Sans'; text-anchor: middle" x="404.357002" y="168.13601" transform="rotate(-0 404.357002 168.13601)">Epoch</text>
    </g>
   </g>
   <g id="matplotlib.axis_4">
    <g id="ytick_12">
     <g id="line2d_31">
      <path d="M 297.763055 96.318692 
L 510.950949 96.318692 
" clip-path="url(#p759389b8a5)" style="fill: none; stroke: #e5e5e5; stroke-width: 0.6; stroke-linecap: square"/>
     </g>
     <g id="line2d_32">
      <g>
       <use xlink:href="#m46963b0bf6" x="297.763055" y="96.318692" style="stroke: #000000; stroke-width: 0.8"/>
      </g>
     </g>
     <g id="text_22">
      <!-- $\mathdefault{10^{-1}}$ -->
      <g transform="translate(271.963055 99.358067)">
       <text>
        <tspan x="0" y="-0.857813" style="font-size: 8px; font-family: 'DejaVu Sans'">1</tspan>
        <tspan x="5.089844" y="-0.857813" style="font-size: 8px; font-family: 'DejaVu Sans'">0</tspan>
        <tspan x="10.25625" y="-3.920313" style="font-size: 5.6px; font-family: 'DejaVu Sans'">−</tspan>
        <tspan x="14.948437" y="-3.920313" style="font-size: 5.6px; font-family: 'DejaVu Sans'">1</tspan>
       </text>
      </g>
     </g>
    </g>
    <g id="ytick_13">
     <g id="line2d_33">
      <g>
       <use xlink:href="#m0ccebd7de1" x="297.763055" y="133.18983" style="stroke: #000000; stroke-width: 0.6"/>
      </g>
     </g>
    </g>
    <g id="ytick_14">
     <g id="line2d_34">
      <g>
       <use xlink:href="#m0ccebd7de1" x="297.763055" y="124.210631" style="stroke: #000000; stroke-width: 0.6"/>
      </g>
     </g>
    </g>
    <g id="ytick_15">
     <g id="line2d_35">
      <g>
       <use xlink:href="#m0ccebd7de1" x="297.763055" y="116.874092" style="stroke: #000000; stroke-width: 0.6"/>
      </g>
     </g>
    </g>
    <g id="ytick_16">
     <g id="line2d_36">
      <g>
       <use xlink:href="#m0ccebd7de1" x="297.763055" y="110.671136" style="stroke: #000000; stroke-width: 0.6"/>
      </g>
     </g>
    </g>
    <g id="ytick_17">
     <g id="line2d_37">
      <g>
       <use xlink:href="#m0ccebd7de1" x="297.763055" y="105.297891" style="stroke: #000000; stroke-width: 0.6"/>
      </g>
     </g>
    </g>
    <g id="ytick_18">
     <g id="line2d_38">
      <g>
       <use xlink:href="#m0ccebd7de1" x="297.763055" y="100.558353" style="stroke: #000000; stroke-width: 0.6"/>
      </g>
     </g>
    </g>
    <g id="ytick_19">
     <g id="line2d_39">
      <g>
       <use xlink:href="#m0ccebd7de1" x="297.763055" y="68.426754" style="stroke: #000000; stroke-width: 0.6"/>
      </g>
     </g>
    </g>
    <g id="ytick_20">
     <g id="line2d_40">
      <g>
       <use xlink:href="#m0ccebd7de1" x="297.763055" y="52.111016" style="stroke: #000000; stroke-width: 0.6"/>
      </g>
     </g>
    </g>
    <g id="ytick_21">
     <g id="line2d_41">
      <g>
       <use xlink:href="#m0ccebd7de1" x="297.763055" y="40.534815" style="stroke: #000000; stroke-width: 0.6"/>
      </g>
     </g>
    </g>
    <g id="ytick_22">
     <g id="line2d_42">
      <g>
       <use xlink:href="#m0ccebd7de1" x="297.763055" y="31.555617" style="stroke: #000000; stroke-width: 0.6"/>
      </g>
     </g>
    </g>
    <g id="ytick_23">
     <g id="line2d_43">
      <g>
       <use xlink:href="#m0ccebd7de1" x="297.763055" y="24.219077" style="stroke: #000000; stroke-width: 0.6"/>
      </g>
     </g>
    </g>
    <g id="ytick_24">
     <g id="line2d_44">
      <g>
       <use xlink:href="#m0ccebd7de1" x="297.763055" y="18.016121" style="stroke: #000000; stroke-width: 0.6"/>
      </g>
     </g>
    </g>
    <g id="text_23">
     <text style="font-size: 8px; font-family: 'DejaVu Sans'; text-anchor: middle" x="266.299305" y="78.576797" transform="rotate(-90 266.299305 78.576797)">Action loss</text>
    </g>
   </g>
   <g id="line2d_45">
    <path d="M 307.453414 19.724103 
L 308.050202 33.425262 
L 308.796189 59.258071 
L 309.542175 67.165111 
L 310.288161 71.295078 
L 311.780133 76.36329 
L 312.526119 78.324257 
L 313.272105 80.859724 
L 314.018091 82.438606 
L 314.764077 84.746516 
L 315.510063 86.564743 
L 316.256049 89.450982 
L 317.002035 91.294019 
L 317.748021 91.916791 
L 318.494007 93.743074 
L 319.239993 94.305608 
L 319.985979 95.285834 
L 320.731965 95.962145 
L 321.477951 96.89419 
L 322.223937 97.176833 
L 323.71591 98.319226 
L 324.461896 98.787133 
L 325.207882 98.595059 
L 325.953868 100.078353 
L 327.44584 101.012484 
L 328.191826 101.876311 
L 328.937812 101.636789 
L 330.429784 103.468952 
L 331.17577 103.483374 
L 331.921756 104.733484 
L 333.413728 106.368291 
L 334.159714 106.679423 
L 334.9057 107.335446 
L 335.651686 107.60088 
L 336.397672 109.303503 
L 337.143658 109.292392 
L 337.889645 109.666301 
L 338.635631 109.756109 
L 340.127603 111.250132 
L 341.619575 112.584163 
L 342.365561 113.363292 
L 343.111547 113.338714 
L 343.857533 113.783423 
L 344.603519 113.708963 
L 345.349505 115.231432 
L 346.095491 115.515721 
L 346.841477 113.640829 
L 347.587463 116.077243 
L 348.333449 115.522205 
L 349.079435 114.529376 
L 349.825421 117.441426 
L 350.571407 115.802032 
L 351.317393 117.659675 
L 352.06338 118.148184 
L 353.555352 118.231338 
L 355.047324 118.895776 
L 355.79331 118.966359 
L 356.539296 117.366676 
L 357.285282 120.192899 
L 358.031268 119.285526 
L 358.777254 120.536672 
L 359.52324 119.743856 
L 360.269226 120.957569 
L 361.015212 120.338826 
L 361.761198 121.210742 
L 362.507184 120.149223 
L 363.25317 120.302295 
L 363.999156 122.255002 
L 364.745142 122.285678 
L 365.491128 122.140174 
L 366.237114 122.609198 
L 366.983101 122.262669 
L 367.729087 121.240632 
L 368.475073 123.162087 
L 369.221059 122.96654 
L 369.967045 123.858072 
L 370.713031 122.01805 
L 371.459017 121.903895 
L 372.205003 123.953918 
L 372.950989 121.987577 
L 373.696975 123.730631 
L 374.442961 121.442973 
L 375.188947 124.941541 
L 375.934933 124.761645 
L 376.680919 123.651184 
L 377.426905 125.336857 
L 378.172891 125.295497 
L 378.918877 123.969915 
L 379.664863 124.990744 
L 380.410849 124.737175 
L 381.156836 125.886837 
L 381.902822 125.736096 
L 382.648808 125.828148 
L 383.394794 124.74533 
L 384.14078 125.87006 
L 385.632752 127.539636 
L 386.378738 126.435932 
L 387.124724 126.367945 
L 387.87071 127.627151 
L 388.616696 127.130844 
L 389.362682 127.979129 
L 390.108668 127.312983 
L 390.854654 127.600877 
L 391.60064 127.373879 
L 393.092612 128.005651 
L 393.838598 127.226147 
L 394.584584 128.245147 
L 395.33057 128.91799 
L 396.076557 126.846281 
L 396.822543 128.818599 
L 397.568529 128.46818 
L 398.314515 128.791536 
L 399.060501 129.272366 
L 399.806487 128.91799 
L 400.552473 128.701454 
L 401.298459 129.464484 
L 402.044445 128.503981 
L 402.790431 129.08116 
L 403.536417 130.074326 
L 404.282403 130.027801 
L 405.028389 129.842237 
L 405.774375 130.092951 
L 406.520361 129.327163 
L 408.012333 130.195544 
L 409.504305 130.740854 
L 410.250292 130.027801 
L 410.996278 130.788212 
L 411.742264 128.692457 
L 412.48825 130.740854 
L 413.234236 131.399361 
L 413.980222 131.111729 
L 415.472194 131.284061 
L 416.21818 130.826138 
L 416.964166 131.149961 
L 417.710152 130.73139 
L 418.456138 130.778736 
L 419.202124 132.029708 
L 419.94811 132.383119 
L 420.694096 131.264877 
L 421.440082 131.980867 
L 422.186068 130.60855 
L 422.932054 132.176586 
L 423.67804 132.392981 
L 424.424026 132.274803 
L 425.170013 132.600631 
L 425.915999 132.25514 
L 426.661985 132.789433 
L 427.407971 132.432451 
L 428.153957 131.476411 
L 428.899943 132.65023 
L 429.645929 133.049237 
L 430.391915 133.119472 
L 431.883887 132.65023 
L 432.629873 133.049237 
L 433.375859 133.280471 
L 434.121845 132.5214 
L 434.867831 133.320821 
L 435.613817 132.729715 
L 436.359803 133.64509 
L 437.105789 133.290555 
L 437.851775 133.64509 
L 438.597761 133.80821 
L 439.343748 134.322264 
L 440.089734 133.930985 
L 440.83572 133.736764 
L 441.581706 134.177666 
L 442.327692 133.290555 
L 443.073678 134.644307 
L 443.819664 133.492764 
L 444.56565 134.177666 
L 445.311636 132.839265 
L 446.057622 134.374032 
L 446.803608 134.332612 
L 447.549594 134.706936 
L 448.29558 134.167357 
L 449.787552 134.874427 
L 452.02551 135.021555 
L 452.771496 132.959115 
L 453.517482 135.011028 
L 454.263469 135.476843 
L 455.009455 134.384394 
L 455.755441 135.158658 
L 457.247413 135.572791 
L 458.739385 135.169224 
L 460.231357 135.594144 
L 461.723329 135.423637 
L 462.469315 135.733214 
L 463.215301 135.434272 
L 463.961287 135.275034 
L 464.707273 135.466196 
L 466.199245 135.615508 
L 466.945231 135.926571 
L 469.18319 135.84052 
L 470.675162 136.153334 
L 471.421148 136.034394 
L 472.167134 136.055993 
L 472.91312 136.240057 
L 473.659106 136.142507 
L 475.151078 136.424967 
L 475.897064 136.610731 
L 478.135022 136.359608 
L 478.881008 136.676499 
L 483.356925 136.676499 
L 484.102911 136.874453 
L 484.848897 136.632642 
L 485.594883 136.907541 
L 496.784673 137.195442 
L 497.53066 137.373641 
L 498.276646 137.362481 
L 499.022632 137.228794 
L 499.768618 137.362481 
L 500.514604 137.239918 
L 501.26059 137.429491 
L 501.26059 137.429491 
" clip-path="url(#p759389b8a5)" style="fill: none; stroke: #0072b2; stroke-width: 1.6; stroke-linecap: square"/>
   </g>
   <g id="line2d_46">
    <path d="M 310.288161 24.561223 
L 313.272105 42.276098 
L 316.256049 68.487159 
L 319.239993 84.379962 
L 322.223937 92.304602 
L 325.207882 97.004553 
L 328.191826 98.744371 
L 331.17577 100.091609 
L 334.159714 102.858383 
L 337.143658 106.924835 
L 340.127603 109.874287 
L 343.111547 111.778449 
L 346.095491 113.504905 
L 349.079435 115.450933 
L 352.06338 116.840573 
L 355.047324 117.769245 
L 358.031268 118.474856 
L 361.015212 119.242824 
L 363.999156 119.859259 
L 366.983101 120.610196 
L 369.967045 121.02443 
L 372.950989 121.540761 
L 375.934933 122.186065 
L 378.918877 122.647886 
L 381.902822 123.005574 
L 384.886766 123.279873 
L 387.87071 123.563974 
L 390.854654 124.049994 
L 393.838598 124.250891 
L 396.822543 124.468992 
L 399.806487 124.671997 
L 402.790431 124.86785 
L 405.774375 125.204653 
L 408.758319 125.353413 
L 411.742264 125.602576 
L 414.726208 125.836527 
L 417.710152 125.945612 
L 420.694096 126.122452 
L 423.67804 126.34248 
L 426.661985 126.435932 
L 429.645929 126.666238 
L 432.629873 126.820512 
L 435.613817 126.880667 
L 438.597761 127.027134 
L 441.581706 127.078955 
L 444.56565 127.191465 
L 447.549594 127.191465 
L 450.533538 127.312983 
L 453.517482 127.330372 
L 456.501427 127.347769 
L 459.485371 127.42615 
L 462.469315 127.58337 
L 465.453259 127.714857 
L 468.437204 127.749993 
L 471.421148 127.864398 
L 474.405092 127.996809 
L 477.389036 127.987968 
L 480.37298 128.076465 
L 483.356925 128.147403 
L 486.340869 128.094187 
L 489.324813 128.227358 
L 492.308757 128.138528 
L 495.292701 128.200688 
L 498.276646 128.289655 
L 501.26059 128.280749 
" clip-path="url(#p759389b8a5)" style="fill: none; stroke: #d55e00; stroke-width: 1.4; stroke-linecap: square"/>
    <g clip-path="url(#p759389b8a5)">
     <use xlink:href="#m7ea965c3ea" x="310.288161" y="24.561223" style="fill: #d55e00; stroke: #d55e00"/>
     <use xlink:href="#m7ea965c3ea" x="325.207882" y="97.004553" style="fill: #d55e00; stroke: #d55e00"/>
     <use xlink:href="#m7ea965c3ea" x="340.127603" y="109.874287" style="fill: #d55e00; stroke: #d55e00"/>
     <use xlink:href="#m7ea965c3ea" x="355.047324" y="117.769245" style="fill: #d55e00; stroke: #d55e00"/>
     <use xlink:href="#m7ea965c3ea" x="369.967045" y="121.02443" style="fill: #d55e00; stroke: #d55e00"/>
     <use xlink:href="#m7ea965c3ea" x="384.886766" y="123.279873" style="fill: #d55e00; stroke: #d55e00"/>
     <use xlink:href="#m7ea965c3ea" x="399.806487" y="124.671997" style="fill: #d55e00; stroke: #d55e00"/>
     <use xlink:href="#m7ea965c3ea" x="414.726208" y="125.836527" style="fill: #d55e00; stroke: #d55e00"/>
     <use xlink:href="#m7ea965c3ea" x="429.645929" y="126.666238" style="fill: #d55e00; stroke: #d55e00"/>
     <use xlink:href="#m7ea965c3ea" x="444.56565" y="127.191465" style="fill: #d55e00; stroke: #d55e00"/>
     <use xlink:href="#m7ea965c3ea" x="459.485371" y="127.42615" style="fill: #d55e00; stroke: #d55e00"/>
     <use xlink:href="#m7ea965c3ea" x="474.405092" y="127.996809" style="fill: #d55e00; stroke: #d55e00"/>
     <use xlink:href="#m7ea965c3ea" x="489.324813" y="128.227358" style="fill: #d55e00; stroke: #d55e00"/>
    </g>
   </g>
   <g id="patch_6">
    <path d="M 297.763055 143.31476 
L 297.763055 13.838834 
" style="fill: none; stroke: #000000; stroke-width: 0.8; stroke-linejoin: miter; stroke-linecap: square"/>
   </g>
   <g id="patch_7">
    <path d="M 297.763055 143.31476 
L 510.950949 143.31476 
" style="fill: none; stroke: #000000; stroke-width: 0.8; stroke-linejoin: miter; stroke-linecap: square"/>
   </g>
   <g id="text_24">
    <text style="font-size: 9px; font-family: 'DejaVu Sans'; text-anchor: middle" x="404.357002" y="9.838834" transform="rotate(-0 404.357002 9.838834)">BC-RNN</text>
   </g>
   <g id="legend_2">
    <g id="line2d_47">
     <path d="M 444.986886 23.00774 
L 451.986886 23.00774 
L 458.986886 23.00774 
" style="fill: none; stroke: #0072b2; stroke-width: 1.6; stroke-linecap: square"/>
    </g>
    <g id="text_25">
     <text style="font-size: 7px; font-family: 'DejaVu Sans'; text-anchor: start" x="464.586886" y="25.45774" transform="rotate(-0 464.586886 25.45774)">train action</text>
    </g>
    <g id="line2d_48">
     <path d="M 444.986886 33.282427 
L 451.986886 33.282427 
L 458.986886 33.282427 
" style="fill: none; stroke: #d55e00; stroke-width: 1.4; stroke-linecap: square"/>
     <g>
      <use xlink:href="#m7ea965c3ea" x="451.986886" y="33.282427" style="fill: #d55e00; stroke: #d55e00"/>
     </g>
    </g>
    <g id="text_26">
     <text style="font-size: 7px; font-family: 'DejaVu Sans'; text-anchor: start" x="464.586886" y="35.732427" transform="rotate(-0 464.586886 35.732427)">val action</text>
    </g>
   </g>
  </g>
  <g id="axes_3">
   <g id="patch_8">
    <path d="M 40.54274 316.11476 
L 253.730634 316.11476 
L 253.730634 186.638834 
L 40.54274 186.638834 
z
" style="fill: #ffffff"/>
   </g>
   <g id="matplotlib.axis_5">
    <g id="xtick_15">
     <g id="line2d_49">
      <g>
       <use xlink:href="#mdb7a405348" x="50.087269" y="316.11476" style="stroke: #000000; stroke-width: 0.8"/>
      </g>
     </g>
     <g id="text_27">
      <text style="font-size: 8px; font-family: 'DejaVu Sans'; text-anchor: middle" x="50.087269" y="329.19351" transform="rotate(-0 50.087269 329.19351)">0</text>
     </g>
    </g>
    <g id="xtick_16">
     <g id="line2d_50">
      <g>
       <use xlink:href="#mdb7a405348" x="79.253135" y="316.11476" style="stroke: #000000; stroke-width: 0.8"/>
      </g>
     </g>
     <g id="text_28">
      <text style="font-size: 8px; font-family: 'DejaVu Sans'; text-anchor: middle" x="79.253135" y="329.19351" transform="rotate(-0 79.253135 329.19351)">200</text>
     </g>
    </g>
    <g id="xtick_17">
     <g id="line2d_51">
      <g>
       <use xlink:href="#mdb7a405348" x="108.419" y="316.11476" style="stroke: #000000; stroke-width: 0.8"/>
      </g>
     </g>
     <g id="text_29">
      <text style="font-size: 8px; font-family: 'DejaVu Sans'; text-anchor: middle" x="108.419" y="329.19351" transform="rotate(-0 108.419 329.19351)">400</text>
     </g>
    </g>
    <g id="xtick_18">
     <g id="line2d_52">
      <g>
       <use xlink:href="#mdb7a405348" x="137.584866" y="316.11476" style="stroke: #000000; stroke-width: 0.8"/>
      </g>
     </g>
     <g id="text_30">
      <text style="font-size: 8px; font-family: 'DejaVu Sans'; text-anchor: middle" x="137.584866" y="329.19351" transform="rotate(-0 137.584866 329.19351)">600</text>
     </g>
    </g>
    <g id="xtick_19">
     <g id="line2d_53">
      <g>
       <use xlink:href="#mdb7a405348" x="166.750731" y="316.11476" style="stroke: #000000; stroke-width: 0.8"/>
      </g>
     </g>
     <g id="text_31">
      <text style="font-size: 8px; font-family: 'DejaVu Sans'; text-anchor: middle" x="166.750731" y="329.19351" transform="rotate(-0 166.750731 329.19351)">800</text>
     </g>
    </g>
    <g id="xtick_20">
     <g id="line2d_54">
      <g>
       <use xlink:href="#mdb7a405348" x="195.916597" y="316.11476" style="stroke: #000000; stroke-width: 0.8"/>
      </g>
     </g>
     <g id="text_32">
      <text style="font-size: 8px; font-family: 'DejaVu Sans'; text-anchor: middle" x="195.916597" y="329.19351" transform="rotate(-0 195.916597 329.19351)">1000</text>
     </g>
    </g>
    <g id="xtick_21">
     <g id="line2d_55">
      <g>
       <use xlink:href="#mdb7a405348" x="225.082462" y="316.11476" style="stroke: #000000; stroke-width: 0.8"/>
      </g>
     </g>
     <g id="text_33">
      <text style="font-size: 8px; font-family: 'DejaVu Sans'; text-anchor: middle" x="225.082462" y="329.19351" transform="rotate(-0 225.082462 329.19351)">1200</text>
     </g>
    </g>
    <g id="text_34">
     <text style="font-size: 8px; font-family: 'DejaVu Sans'; text-anchor: middle" x="147.136687" y="340.93601" transform="rotate(-0 147.136687 340.93601)">Epoch</text>
    </g>
   </g>
   <g id="matplotlib.axis_6">
    <g id="ytick_25">
     <g id="line2d_56">
      <path d="M 40.54274 264.908864 
L 253.730634 264.908864 
" clip-path="url(#p2e77b661e4)" style="fill: none; stroke: #e5e5e5; stroke-width: 0.6; stroke-linecap: square"/>
     </g>
     <g id="line2d_57">
      <g>
       <use xlink:href="#m46963b0bf6" x="40.54274" y="264.908864" style="stroke: #000000; stroke-width: 0.8"/>
      </g>
     </g>
     <g id="text_35">
      <!-- $\mathdefault{10^{-1}}$ -->
      <g transform="translate(14.74274 267.948239)">
       <text>
        <tspan x="0" y="-0.857813" style="font-size: 8px; font-family: 'DejaVu Sans'">1</tspan>
        <tspan x="5.089844" y="-0.857813" style="font-size: 8px; font-family: 'DejaVu Sans'">0</tspan>
        <tspan x="10.25625" y="-3.920313" style="font-size: 5.6px; font-family: 'DejaVu Sans'">−</tspan>
        <tspan x="14.948437" y="-3.920313" style="font-size: 5.6px; font-family: 'DejaVu Sans'">1</tspan>
       </text>
      </g>
     </g>
    </g>
    <g id="ytick_26">
     <g id="line2d_58">
      <g>
       <use xlink:href="#m0ccebd7de1" x="40.54274" y="314.125642" style="stroke: #000000; stroke-width: 0.6"/>
      </g>
     </g>
    </g>
    <g id="ytick_27">
     <g id="line2d_59">
      <g>
       <use xlink:href="#m0ccebd7de1" x="40.54274" y="302.365588" style="stroke: #000000; stroke-width: 0.6"/>
      </g>
     </g>
    </g>
    <g id="ytick_28">
     <g id="line2d_60">
      <g>
       <use xlink:href="#m0ccebd7de1" x="40.54274" y="293.243782" style="stroke: #000000; stroke-width: 0.6"/>
      </g>
     </g>
    </g>
    <g id="ytick_29">
     <g id="line2d_61">
      <g>
       <use xlink:href="#m0ccebd7de1" x="40.54274" y="285.790724" style="stroke: #000000; stroke-width: 0.6"/>
      </g>
     </g>
    </g>
    <g id="ytick_30">
     <g id="line2d_62">
      <g>
       <use xlink:href="#m0ccebd7de1" x="40.54274" y="279.489253" style="stroke: #000000; stroke-width: 0.6"/>
      </g>
     </g>
    </g>
    <g id="ytick_31">
     <g id="line2d_63">
      <g>
       <use xlink:href="#m0ccebd7de1" x="40.54274" y="274.03067" style="stroke: #000000; stroke-width: 0.6"/>
      </g>
     </g>
    </g>
    <g id="ytick_32">
     <g id="line2d_64">
      <g>
       <use xlink:href="#m0ccebd7de1" x="40.54274" y="269.215859" style="stroke: #000000; stroke-width: 0.6"/>
      </g>
     </g>
    </g>
    <g id="ytick_33">
     <g id="line2d_65">
      <g>
       <use xlink:href="#m0ccebd7de1" x="40.54274" y="236.573946" style="stroke: #000000; stroke-width: 0.6"/>
      </g>
     </g>
    </g>
    <g id="ytick_34">
     <g id="line2d_66">
      <g>
       <use xlink:href="#m0ccebd7de1" x="40.54274" y="219.999082" style="stroke: #000000; stroke-width: 0.6"/>
      </g>
     </g>
    </g>
    <g id="ytick_35">
     <g id="line2d_67">
      <g>
       <use xlink:href="#m0ccebd7de1" x="40.54274" y="208.239028" style="stroke: #000000; stroke-width: 0.6"/>
      </g>
     </g>
    </g>
    <g id="ytick_36">
     <g id="line2d_68">
      <g>
       <use xlink:href="#m0ccebd7de1" x="40.54274" y="199.117222" style="stroke: #000000; stroke-width: 0.6"/>
      </g>
     </g>
    </g>
    <g id="ytick_37">
     <g id="line2d_69">
      <g>
       <use xlink:href="#m0ccebd7de1" x="40.54274" y="191.664164" style="stroke: #000000; stroke-width: 0.6"/>
      </g>
     </g>
    </g>
    <g id="text_36">
     <text style="font-size: 8px; font-family: 'DejaVu Sans'; text-anchor: middle" x="9.07899" y="251.376797" transform="rotate(-90 9.07899 251.376797)">Action loss</text>
    </g>
   </g>
   <g id="line2d_70">
    <path d="M 50.233099 192.524103 
L 50.816416 238.681506 
L 51.545563 251.125146 
L 52.274709 258.490764 
L 53.003856 263.53419 
L 53.733003 267.451295 
L 55.191296 272.021598 
L 55.920443 273.831871 
L 56.649589 275.307421 
L 57.378736 277.322726 
L 58.107882 278.326312 
L 58.837029 279.71177 
L 61.753616 283.595592 
L 62.482762 284.167786 
L 63.211909 285.128433 
L 63.941056 285.886219 
L 64.670202 286.311827 
L 66.857642 288.211531 
L 71.232522 290.993159 
L 71.961669 291.187062 
L 73.419962 292.122865 
L 74.878255 292.82084 
L 76.336548 293.374804 
L 77.065695 293.944694 
L 79.253135 294.531078 
L 79.982282 295.006318 
L 80.711428 295.108878 
L 81.440575 295.52171 
L 82.169722 295.435359 
L 82.898868 295.947488 
L 83.628015 296.105016 
L 84.357161 296.643424 
L 85.815455 296.785827 
L 88.002895 297.523534 
L 89.461188 297.487238 
L 90.190335 298.219357 
L 90.919481 298.127122 
L 91.648628 298.339575 
L 93.106921 298.404455 
L 93.836068 298.852138 
L 96.023508 299.210064 
L 98.940094 299.800861 
L 99.669241 300.157545 
L 101.856681 300.507602 
L 102.585827 300.410063 
L 103.314974 300.850834 
L 104.044121 300.664151 
L 104.773267 300.713195 
L 105.502414 301.137425 
L 106.231561 300.959304 
L 106.960707 301.416054 
L 107.689854 301.40607 
L 108.419 301.586153 
L 109.148147 301.566104 
L 110.60644 301.948715 
L 111.335587 301.948715 
L 113.523027 302.386033 
L 114.252174 302.539693 
L 114.98132 302.457669 
L 116.439613 302.663038 
L 117.16876 302.910851 
L 117.897907 302.745475 
L 118.627053 303.118515 
L 119.3562 303.087298 
L 121.54364 303.337704 
L 122.272787 303.421515 
L 123.001933 303.32724 
L 123.73108 303.705651 
L 125.189373 303.716213 
L 126.647666 303.864362 
L 127.376813 304.108922 
L 128.10596 304.034336 
L 128.835106 304.354955 
L 130.2934 304.462389 
L 131.022546 304.559321 
L 132.480839 304.559321 
L 133.939133 304.699742 
L 134.668279 304.667295 
L 137.584866 305.102062 
L 138.314013 304.971146 
L 139.043159 305.047463 
L 139.772306 305.277272 
L 141.230599 305.310208 
L 141.959746 305.497346 
L 142.688892 305.398166 
L 144.147186 305.696431 
L 144.876332 305.497346 
L 145.605479 305.751905 
L 149.251212 305.941081 
L 149.980359 306.153554 
L 150.709505 306.175984 
L 151.438652 306.030409 
L 152.896945 306.400963 
L 155.084385 306.48 
L 156.542679 306.593174 
L 157.271825 306.491303 
L 159.459265 306.831866 
L 160.188412 306.729399 
L 161.646705 307.071959 
L 163.104998 306.94602 
L 168.209025 307.417415 
L 168.938171 307.313471 
L 169.667318 307.463697 
L 170.396465 307.359636 
L 171.125611 307.602858 
L 171.854758 307.707541 
L 173.313051 307.649351 
L 177.687931 307.964567 
L 179.875371 308.070181 
L 180.604518 308.176069 
L 181.333664 308.070181 
L 184.250251 308.294045 
L 186.437691 308.447925 
L 187.166837 308.400516 
L 188.625131 308.566689 
L 189.354277 308.542909 
L 190.083424 308.65003 
L 193.00001 308.65003 
L 194.458304 308.805258 
L 204.666357 309.201966 
L 205.395503 309.189888 
L 206.853796 309.335062 
L 211.228676 309.419986 
L 211.957823 309.565981 
L 213.416116 309.529434 
L 219.978436 309.688044 
L 221.436729 309.761456 
L 225.082462 309.859546 
L 226.540756 309.871823 
L 229.457342 309.982489 
L 236.748809 310.155233 
L 238.936249 310.06877 
L 240.394542 310.179971 
L 241.852835 310.130511 
L 244.040275 310.229491 
L 244.040275 310.229491 
" clip-path="url(#p2e77b661e4)" style="fill: none; stroke: #0072b2; stroke-width: 1.6; stroke-linecap: square"/>
   </g>
   <g id="line2d_71">
    <path d="M 53.003856 270.078814 
L 55.920443 283.421627 
L 58.837029 288.948235 
L 61.753616 292.354202 
L 64.670202 294.33748 
L 67.586789 295.63424 
L 70.503375 296.732368 
L 73.419962 297.824214 
L 76.336548 298.562449 
L 79.253135 299.200604 
L 82.169722 299.695417 
L 85.086308 300.051178 
L 88.002895 300.332199 
L 90.919481 300.664151 
L 93.836068 300.850834 
L 96.752654 301.117596 
L 99.669241 301.326287 
L 102.585827 301.566104 
L 105.502414 301.817418 
L 108.419 301.999326 
L 111.335587 302.110892 
L 114.252174 302.519171 
L 117.16876 302.478159 
L 120.085347 302.786757 
L 123.001933 302.900495 
L 125.91852 302.99379 
L 128.835106 303.0665 
L 131.751693 302.983413 
L 134.668279 303.191448 
L 137.584866 303.337704 
L 140.501452 303.32724 
L 143.418039 303.358641 
L 146.334626 303.52652 
L 149.251212 303.421515 
L 152.167799 303.579124 
L 155.084385 303.484486 
L 158.000972 303.673983 
L 160.917558 303.600185 
L 163.834145 303.621256 
L 166.750731 303.705651 
L 169.667318 303.695092 
L 172.583905 303.600185 
L 175.500491 303.821979 
L 178.417078 303.684536 
L 181.333664 303.81139 
L 184.250251 303.81139 
L 187.166837 303.673983 
L 190.083424 303.758486 
L 193.00001 303.832571 
L 195.916597 303.874965 
L 198.833183 303.864362 
L 201.74977 303.79022 
L 204.666357 303.843165 
L 207.582943 303.832571 
L 210.49953 303.906789 
L 213.416116 303.938639 
L 216.332703 303.959886 
L 219.249289 303.88557 
L 222.165876 303.981143 
L 225.082462 304.098259 
L 227.999049 304.013051 
L 230.915636 303.991776 
L 233.832222 304.055633 
L 236.748809 303.991776 
L 239.665395 304.044983 
L 242.581982 304.108922 
" clip-path="url(#p2e77b661e4)" style="fill: none; stroke: #d55e00; stroke-width: 1.4; stroke-linecap: square"/>
    <g clip-path="url(#p2e77b661e4)">
     <use xlink:href="#m7ea965c3ea" x="53.003856" y="270.078814" style="fill: #d55e00; stroke: #d55e00"/>
     <use xlink:href="#m7ea965c3ea" x="67.586789" y="295.63424" style="fill: #d55e00; stroke: #d55e00"/>
     <use xlink:href="#m7ea965c3ea" x="82.169722" y="299.695417" style="fill: #d55e00; stroke: #d55e00"/>
     <use xlink:href="#m7ea965c3ea" x="96.752654" y="301.117596" style="fill: #d55e00; stroke: #d55e00"/>
     <use xlink:href="#m7ea965c3ea" x="111.335587" y="302.110892" style="fill: #d55e00; stroke: #d55e00"/>
     <use xlink:href="#m7ea965c3ea" x="125.91852" y="302.99379" style="fill: #d55e00; stroke: #d55e00"/>
     <use xlink:href="#m7ea965c3ea" x="140.501452" y="303.32724" style="fill: #d55e00; stroke: #d55e00"/>
     <use xlink:href="#m7ea965c3ea" x="155.084385" y="303.484486" style="fill: #d55e00; stroke: #d55e00"/>
     <use xlink:href="#m7ea965c3ea" x="169.667318" y="303.695092" style="fill: #d55e00; stroke: #d55e00"/>
     <use xlink:href="#m7ea965c3ea" x="184.250251" y="303.81139" style="fill: #d55e00; stroke: #d55e00"/>
     <use xlink:href="#m7ea965c3ea" x="198.833183" y="303.864362" style="fill: #d55e00; stroke: #d55e00"/>
     <use xlink:href="#m7ea965c3ea" x="213.416116" y="303.938639" style="fill: #d55e00; stroke: #d55e00"/>
     <use xlink:href="#m7ea965c3ea" x="227.999049" y="304.013051" style="fill: #d55e00; stroke: #d55e00"/>
     <use xlink:href="#m7ea965c3ea" x="242.581982" y="304.108922" style="fill: #d55e00; stroke: #d55e00"/>
    </g>
   </g>
   <g id="patch_9">
    <path d="M 40.54274 316.11476 
L 40.54274 186.638834 
" style="fill: none; stroke: #000000; stroke-width: 0.8; stroke-linejoin: miter; stroke-linecap: square"/>
   </g>
   <g id="patch_10">
    <path d="M 40.54274 316.11476 
L 253.730634 316.11476 
" style="fill: none; stroke: #000000; stroke-width: 0.8; stroke-linejoin: miter; stroke-linecap: square"/>
   </g>
   <g id="text_37">
    <text style="font-size: 9px; font-family: 'DejaVu Sans'; text-anchor: middle" x="147.136687" y="182.638834" transform="rotate(-0 147.136687 182.638834)">ACT</text>
   </g>
   <g id="legend_3">
    <g id="line2d_72">
     <path d="M 187.766571 195.80774 
L 194.766571 195.80774 
L 201.766571 195.80774 
" style="fill: none; stroke: #0072b2; stroke-width: 1.6; stroke-linecap: square"/>
    </g>
    <g id="text_38">
     <text style="font-size: 7px; font-family: 'DejaVu Sans'; text-anchor: start" x="207.366571" y="198.25774" transform="rotate(-0 207.366571 198.25774)">train action</text>
    </g>
    <g id="line2d_73">
     <path d="M 187.766571 206.082427 
L 194.766571 206.082427 
L 201.766571 206.082427 
" style="fill: none; stroke: #d55e00; stroke-width: 1.4; stroke-linecap: square"/>
     <g>
      <use xlink:href="#m7ea965c3ea" x="194.766571" y="206.082427" style="fill: #d55e00; stroke: #d55e00"/>
     </g>
    </g>
    <g id="text_39">
     <text style="font-size: 7px; font-family: 'DejaVu Sans'; text-anchor: start" x="207.366571" y="208.532427" transform="rotate(-0 207.366571 208.532427)">val action</text>
    </g>
   </g>
  </g>
  <g id="axes_4">
   <g id="patch_11">
    <path d="M 297.763055 316.11476 
L 510.950949 316.11476 
L 510.950949 186.638834 
L 297.763055 186.638834 
z
" style="fill: #ffffff"/>
   </g>
   <g id="matplotlib.axis_7">
    <g id="xtick_22">
     <g id="line2d_74">
      <g>
       <use xlink:href="#mdb7a405348" x="307.255449" y="316.11476" style="stroke: #000000; stroke-width: 0.8"/>
      </g>
     </g>
     <g id="text_40">
      <text style="font-size: 8px; font-family: 'DejaVu Sans'; text-anchor: middle" x="307.255449" y="329.19351" transform="rotate(-0 307.255449 329.19351)">0</text>
     </g>
    </g>
    <g id="xtick_23">
     <g id="line2d_75">
      <g>
       <use xlink:href="#mdb7a405348" x="346.848335" y="316.11476" style="stroke: #000000; stroke-width: 0.8"/>
      </g>
     </g>
     <g id="text_41">
      <text style="font-size: 8px; font-family: 'DejaVu Sans'; text-anchor: middle" x="346.848335" y="329.19351" transform="rotate(-0 346.848335 329.19351)">200</text>
     </g>
    </g>
    <g id="xtick_24">
     <g id="line2d_76">
      <g>
       <use xlink:href="#mdb7a405348" x="386.441221" y="316.11476" style="stroke: #000000; stroke-width: 0.8"/>
      </g>
     </g>
     <g id="text_42">
      <text style="font-size: 8px; font-family: 'DejaVu Sans'; text-anchor: middle" x="386.441221" y="329.19351" transform="rotate(-0 386.441221 329.19351)">400</text>
     </g>
    </g>
    <g id="xtick_25">
     <g id="line2d_77">
      <g>
       <use xlink:href="#mdb7a405348" x="426.034107" y="316.11476" style="stroke: #000000; stroke-width: 0.8"/>
      </g>
     </g>
     <g id="text_43">
      <text style="font-size: 8px; font-family: 'DejaVu Sans'; text-anchor: middle" x="426.034107" y="329.19351" transform="rotate(-0 426.034107 329.19351)">600</text>
     </g>
    </g>
    <g id="xtick_26">
     <g id="line2d_78">
      <g>
       <use xlink:href="#mdb7a405348" x="465.626993" y="316.11476" style="stroke: #000000; stroke-width: 0.8"/>
      </g>
     </g>
     <g id="text_44">
      <text style="font-size: 8px; font-family: 'DejaVu Sans'; text-anchor: middle" x="465.626993" y="329.19351" transform="rotate(-0 465.626993 329.19351)">800</text>
     </g>
    </g>
    <g id="xtick_27">
     <g id="line2d_79">
      <g>
       <use xlink:href="#mdb7a405348" x="505.219878" y="316.11476" style="stroke: #000000; stroke-width: 0.8"/>
      </g>
     </g>
     <g id="text_45">
      <text style="font-size: 8px; font-family: 'DejaVu Sans'; text-anchor: middle" x="505.219878" y="329.19351" transform="rotate(-0 505.219878 329.19351)">1000</text>
     </g>
    </g>
    <g id="text_46">
     <text style="font-size: 8px; font-family: 'DejaVu Sans'; text-anchor: middle" x="404.357002" y="340.93601" transform="rotate(-0 404.357002 340.93601)">Epoch</text>
    </g>
   </g>
   <g id="matplotlib.axis_8">
    <g id="ytick_38">
     <g id="line2d_80">
      <path d="M 297.763055 299.960294 
L 510.950949 299.960294 
" clip-path="url(#p8476603d39)" style="fill: none; stroke: #e5e5e5; stroke-width: 0.6; stroke-linecap: square"/>
     </g>
     <g id="line2d_81">
      <g>
       <use xlink:href="#m46963b0bf6" x="297.763055" y="299.960294" style="stroke: #000000; stroke-width: 0.8"/>
      </g>
     </g>
     <g id="text_47">
      <!-- $\mathdefault{10^{-2}}$ -->
      <g transform="translate(271.963055 302.999669)">
       <text>
        <tspan x="0" y="-0.78125" style="font-size: 8px; font-family: 'DejaVu Sans'">1</tspan>
        <tspan x="5.089844" y="-0.78125" style="font-size: 8px; font-family: 'DejaVu Sans'">0</tspan>
        <tspan x="10.25625" y="-3.84375" style="font-size: 5.6px; font-family: 'DejaVu Sans'">−</tspan>
        <tspan x="14.948437" y="-3.84375" style="font-size: 5.6px; font-family: 'DejaVu Sans'">2</tspan>
       </text>
      </g>
     </g>
    </g>
    <g id="ytick_39">
     <g id="line2d_82">
      <path d="M 297.763055 242.000635 
L 510.950949 242.000635 
" clip-path="url(#p8476603d39)" style="fill: none; stroke: #e5e5e5; stroke-width: 0.6; stroke-linecap: square"/>
     </g>
     <g id="line2d_83">
      <g>
       <use xlink:href="#m46963b0bf6" x="297.763055" y="242.000635" style="stroke: #000000; stroke-width: 0.8"/>
      </g>
     </g>
     <g id="text_48">
      <!-- $\mathdefault{10^{-1}}$ -->
      <g transform="translate(271.963055 245.04001)">
       <text>
        <tspan x="0" y="-0.857813" style="font-size: 8px; font-family: 'DejaVu Sans'">1</tspan>
        <tspan x="5.089844" y="-0.857813" style="font-size: 8px; font-family: 'DejaVu Sans'">0</tspan>
        <tspan x="10.25625" y="-3.920313" style="font-size: 5.6px; font-family: 'DejaVu Sans'">−</tspan>
        <tspan x="14.948437" y="-3.920313" style="font-size: 5.6px; font-family: 'DejaVu Sans'">1</tspan>
       </text>
      </g>
     </g>
    </g>
    <g id="ytick_40">
     <g id="line2d_84">
      <g>
       <use xlink:href="#m0ccebd7de1" x="297.763055" y="312.818571" style="stroke: #000000; stroke-width: 0.6"/>
      </g>
     </g>
    </g>
    <g id="ytick_41">
     <g id="line2d_85">
      <g>
       <use xlink:href="#m0ccebd7de1" x="297.763055" y="308.938358" style="stroke: #000000; stroke-width: 0.6"/>
      </g>
     </g>
    </g>
    <g id="ytick_42">
     <g id="line2d_86">
      <g>
       <use xlink:href="#m0ccebd7de1" x="297.763055" y="305.577165" style="stroke: #000000; stroke-width: 0.6"/>
      </g>
     </g>
    </g>
    <g id="ytick_43">
     <g id="line2d_87">
      <g>
       <use xlink:href="#m0ccebd7de1" x="297.763055" y="302.612382" style="stroke: #000000; stroke-width: 0.6"/>
      </g>
     </g>
    </g>
    <g id="ytick_44">
     <g id="line2d_88">
      <g>
       <use xlink:href="#m0ccebd7de1" x="297.763055" y="282.512698" style="stroke: #000000; stroke-width: 0.6"/>
      </g>
     </g>
    </g>
    <g id="ytick_45">
     <g id="line2d_89">
      <g>
       <use xlink:href="#m0ccebd7de1" x="297.763055" y="272.306508" style="stroke: #000000; stroke-width: 0.6"/>
      </g>
     </g>
    </g>
    <g id="ytick_46">
     <g id="line2d_90">
      <g>
       <use xlink:href="#m0ccebd7de1" x="297.763055" y="265.065102" style="stroke: #000000; stroke-width: 0.6"/>
      </g>
     </g>
    </g>
    <g id="ytick_47">
     <g id="line2d_91">
      <g>
       <use xlink:href="#m0ccebd7de1" x="297.763055" y="259.448231" style="stroke: #000000; stroke-width: 0.6"/>
      </g>
     </g>
    </g>
    <g id="ytick_48">
     <g id="line2d_92">
      <g>
       <use xlink:href="#m0ccebd7de1" x="297.763055" y="254.858913" style="stroke: #000000; stroke-width: 0.6"/>
      </g>
     </g>
    </g>
    <g id="ytick_49">
     <g id="line2d_93">
      <g>
       <use xlink:href="#m0ccebd7de1" x="297.763055" y="250.978699" style="stroke: #000000; stroke-width: 0.6"/>
      </g>
     </g>
    </g>
    <g id="ytick_50">
     <g id="line2d_94">
      <g>
       <use xlink:href="#m0ccebd7de1" x="297.763055" y="247.617506" style="stroke: #000000; stroke-width: 0.6"/>
      </g>
     </g>
    </g>
    <g id="ytick_51">
     <g id="line2d_95">
      <g>
       <use xlink:href="#m0ccebd7de1" x="297.763055" y="244.652723" style="stroke: #000000; stroke-width: 0.6"/>
      </g>
     </g>
    </g>
    <g id="ytick_52">
     <g id="line2d_96">
      <g>
       <use xlink:href="#m0ccebd7de1" x="297.763055" y="224.553039" style="stroke: #000000; stroke-width: 0.6"/>
      </g>
     </g>
    </g>
    <g id="ytick_53">
     <g id="line2d_97">
      <g>
       <use xlink:href="#m0ccebd7de1" x="297.763055" y="214.346849" style="stroke: #000000; stroke-width: 0.6"/>
      </g>
     </g>
    </g>
    <g id="ytick_54">
     <g id="line2d_98">
      <g>
       <use xlink:href="#m0ccebd7de1" x="297.763055" y="207.105443" style="stroke: #000000; stroke-width: 0.6"/>
      </g>
     </g>
    </g>
    <g id="ytick_55">
     <g id="line2d_99">
      <g>
       <use xlink:href="#m0ccebd7de1" x="297.763055" y="201.488572" style="stroke: #000000; stroke-width: 0.6"/>
      </g>
     </g>
    </g>
    <g id="ytick_56">
     <g id="line2d_100">
      <g>
       <use xlink:href="#m0ccebd7de1" x="297.763055" y="196.899254" style="stroke: #000000; stroke-width: 0.6"/>
      </g>
     </g>
    </g>
    <g id="ytick_57">
     <g id="line2d_101">
      <g>
       <use xlink:href="#m0ccebd7de1" x="297.763055" y="193.01904" style="stroke: #000000; stroke-width: 0.6"/>
      </g>
     </g>
    </g>
    <g id="ytick_58">
     <g id="line2d_102">
      <g>
       <use xlink:href="#m0ccebd7de1" x="297.763055" y="189.657847" style="stroke: #000000; stroke-width: 0.6"/>
      </g>
     </g>
    </g>
    <g id="ytick_59">
     <g id="line2d_103">
      <g>
       <use xlink:href="#m0ccebd7de1" x="297.763055" y="186.693064" style="stroke: #000000; stroke-width: 0.6"/>
      </g>
     </g>
    </g>
    <g id="text_49">
     <text style="font-size: 8px; font-family: 'DejaVu Sans'; text-anchor: middle" x="266.299305" y="251.376797" transform="rotate(-90 266.299305 251.376797)">Noise loss</text>
    </g>
   </g>
   <g id="line2d_104">
    <path d="M 307.453414 192.524103 
L 308.245271 241.430707 
L 309.235093 251.712063 
L 312.20456 266.87829 
L 313.194382 269.274691 
L 314.184204 271.206565 
L 315.174026 274.223609 
L 316.163849 272.635884 
L 317.153671 275.381658 
L 318.143493 275.136356 
L 320.123137 278.081196 
L 321.112959 278.46404 
L 322.102781 280.056449 
L 323.092604 279.750097 
L 324.082426 281.477091 
L 325.072248 282.137928 
L 326.06207 281.780879 
L 328.041714 283.976648 
L 329.031536 283.698067 
L 330.021359 284.597866 
L 331.011181 283.370393 
L 332.001003 285.431898 
L 332.990825 286.10509 
L 334.970469 285.19277 
L 335.960291 285.011428 
L 336.950114 287.006545 
L 337.939936 286.426495 
L 338.929758 286.886466 
L 339.91958 286.648012 
L 340.909402 283.63219 
L 341.899224 286.796781 
L 342.889046 285.389534 
L 343.878869 286.916432 
L 344.868691 289.108007 
L 345.858513 288.17681 
L 346.848335 288.863858 
L 347.838157 285.974779 
L 348.827979 288.961234 
L 350.807624 289.821318 
L 351.797446 290.555434 
L 352.787268 288.462133 
L 353.77709 290.296908 
L 355.756734 290.468963 
L 356.746556 291.222502 
L 357.736379 291.347334 
L 358.726201 291.311605 
L 359.716023 289.173515 
L 360.705845 291.329463 
L 361.695667 289.854992 
L 362.685489 289.420701 
L 363.675312 293.067398 
L 364.665134 291.401024 
L 365.654956 290.041011 
L 366.644778 291.834716 
L 367.6346 292.706304 
L 368.624422 291.240297 
L 369.614244 293.086547 
L 370.604067 293.609158 
L 371.593889 293.570072 
L 372.583711 289.770891 
L 373.573533 293.472621 
L 374.563355 293.278844 
L 375.553177 293.825225 
L 376.542999 293.570072 
L 377.532822 294.283083 
L 378.522644 293.201749 
L 379.512466 294.08299 
L 380.502288 294.565912 
L 381.49211 293.433746 
L 382.481932 293.844959 
L 383.471754 295.141287 
L 384.461577 294.913676 
L 385.451399 293.884475 
L 386.441221 295.016881 
L 388.420865 295.037573 
L 389.410687 295.645155 
L 390.400509 295.794037 
L 391.390332 296.289514 
L 392.380154 296.508018 
L 393.369976 296.008264 
L 394.359798 296.750584 
L 395.34962 296.640037 
L 396.339442 295.943804 
L 397.329264 295.058281 
L 398.319087 296.267767 
L 399.308909 297.130118 
L 400.298731 297.26545 
L 401.288553 297.561188 
L 402.278375 297.675865 
L 403.268197 297.469821 
L 404.258019 297.791067 
L 405.247842 298.469839 
L 406.237664 297.883609 
L 407.227486 298.093082 
L 409.20713 298.900541 
L 410.196952 298.876419 
L 411.186775 299.461831 
L 412.176597 298.069721 
L 413.166419 299.585524 
L 414.156241 298.732169 
L 415.146063 299.960294 
L 416.135885 299.461831 
L 417.125707 300.035922 
L 418.11553 300.086467 
L 419.105352 300.597582 
L 420.095174 300.417509 
L 421.084996 300.597582 
L 422.074818 300.96164 
L 423.06464 300.417509 
L 424.054462 300.909308 
L 425.044285 300.752963 
L 426.034107 301.224943 
L 427.023929 301.437587 
L 428.013751 301.304474 
L 429.003573 301.75996 
L 429.993395 301.224943 
L 431.97304 301.977191 
L 432.962862 301.922707 
L 433.952684 302.113919 
L 434.942506 302.445129 
L 435.932328 301.922707 
L 437.911972 302.445129 
L 438.901795 302.113919 
L 439.891617 303.035444 
L 440.881439 303.436821 
L 441.871261 303.007017 
L 442.861083 302.83713 
L 443.850905 303.379088 
L 445.83055 303.581735 
L 447.810194 303.669086 
L 448.800016 303.991991 
L 451.769482 304.529482 
L 452.759305 304.169883 
L 453.749127 305.109568 
L 454.738949 304.559682 
L 455.728771 305.233414 
L 456.718593 304.620191 
L 457.708415 305.047873 
L 459.68806 305.3267 
L 460.677882 304.802594 
L 461.667704 305.703338 
L 463.647348 305.671736 
L 465.626993 306.539252 
L 466.616815 306.085699 
L 467.606637 306.343871 
L 468.596459 306.279079 
L 471.565925 306.769131 
L 472.555748 307.067809 
L 473.54557 307.101215 
L 474.535392 306.802143 
L 475.525214 307.101215 
L 476.515036 306.868297 
L 477.504858 307.034447 
L 478.49468 307.471639 
L 479.484503 307.2017 
L 480.474325 308.055055 
L 482.453969 307.847596 
L 483.443791 308.194317 
L 484.433613 308.12459 
L 485.423435 308.404666 
L 486.413258 308.299272 
L 487.40308 308.723522 
L 488.392902 308.439895 
L 489.382724 308.830711 
L 490.372546 308.759201 
L 491.362368 309.082608 
L 492.35219 308.830711 
L 493.342013 309.22769 
L 494.331835 309.082608 
L 495.321657 309.082608 
L 496.311479 309.816525 
L 497.301301 309.853789 
L 498.291123 309.594095 
L 499.280945 309.891108 
L 500.270768 309.891108 
L 501.26059 310.229491 
L 501.26059 310.229491 
" clip-path="url(#p8476603d39)" style="fill: none; stroke: #0072b2; stroke-width: 1.6; stroke-linecap: square"/>
   </g>
   <g id="line2d_105">
    <path d="M 311.214738 259.574404 
L 315.174026 275.220998 
L 319.133315 280.505644 
L 323.092604 284.502339 
L 327.051892 286.22149 
L 331.011181 287.723819 
L 334.970469 288.510003 
L 338.929758 289.042669 
L 342.889046 290.126021 
L 346.848335 290.992299 
L 350.807624 291.401024 
L 354.766912 292.612135 
L 358.726201 292.294567 
L 362.685489 292.990946 
L 366.644778 293.570072 
L 370.604067 294.586237 
L 374.563355 294.934283 
L 378.522644 294.626934 
L 382.481932 295.391961 
L 386.441221 296.442267 
L 390.400509 295.858114 
L 394.359798 295.645155 
L 398.319087 296.706307 
L 402.278375 297.310722 
L 406.237664 297.197693 
L 410.196952 297.175148 
L 414.156241 298.023064 
L 418.11553 297.584081 
L 422.074818 298.304314 
L 426.034107 298.25722 
L 429.993395 298.804191 
L 433.952684 298.63646 
L 437.911972 299.070047 
L 441.871261 298.660353 
L 445.83055 299.859808 
L 449.789838 298.588741 
L 453.749127 299.461831 
L 457.708415 298.876419 
L 461.667704 299.191826 
L 465.626993 299.118688 
L 469.586281 298.997262 
L 473.54557 299.684918 
L 477.504858 299.216252 
L 481.464147 298.564916 
L 485.423435 298.948855 
L 489.382724 298.493574 
L 493.342013 297.906798 
L 497.301301 298.997262 
L 501.26059 298.304314 
" clip-path="url(#p8476603d39)" style="fill: none; stroke: #d55e00; stroke-width: 1.4; stroke-linecap: square"/>
    <g clip-path="url(#p8476603d39)">
     <use xlink:href="#m7ea965c3ea" x="311.214738" y="259.574404" style="fill: #d55e00; stroke: #d55e00"/>
     <use xlink:href="#m7ea965c3ea" x="327.051892" y="286.22149" style="fill: #d55e00; stroke: #d55e00"/>
     <use xlink:href="#m7ea965c3ea" x="342.889046" y="290.126021" style="fill: #d55e00; stroke: #d55e00"/>
     <use xlink:href="#m7ea965c3ea" x="358.726201" y="292.294567" style="fill: #d55e00; stroke: #d55e00"/>
     <use xlink:href="#m7ea965c3ea" x="374.563355" y="294.934283" style="fill: #d55e00; stroke: #d55e00"/>
     <use xlink:href="#m7ea965c3ea" x="390.400509" y="295.858114" style="fill: #d55e00; stroke: #d55e00"/>
     <use xlink:href="#m7ea965c3ea" x="406.237664" y="297.197693" style="fill: #d55e00; stroke: #d55e00"/>
     <use xlink:href="#m7ea965c3ea" x="422.074818" y="298.304314" style="fill: #d55e00; stroke: #d55e00"/>
     <use xlink:href="#m7ea965c3ea" x="437.911972" y="299.070047" style="fill: #d55e00; stroke: #d55e00"/>
     <use xlink:href="#m7ea965c3ea" x="453.749127" y="299.461831" style="fill: #d55e00; stroke: #d55e00"/>
     <use xlink:href="#m7ea965c3ea" x="469.586281" y="298.997262" style="fill: #d55e00; stroke: #d55e00"/>
     <use xlink:href="#m7ea965c3ea" x="485.423435" y="298.948855" style="fill: #d55e00; stroke: #d55e00"/>
     <use xlink:href="#m7ea965c3ea" x="501.26059" y="298.304314" style="fill: #d55e00; stroke: #d55e00"/>
    </g>
   </g>
   <g id="patch_12">
    <path d="M 297.763055 316.11476 
L 297.763055 186.638834 
" style="fill: none; stroke: #000000; stroke-width: 0.8; stroke-linejoin: miter; stroke-linecap: square"/>
   </g>
   <g id="patch_13">
    <path d="M 297.763055 316.11476 
L 510.950949 316.11476 
" style="fill: none; stroke: #000000; stroke-width: 0.8; stroke-linejoin: miter; stroke-linecap: square"/>
   </g>
   <g id="text_50">
    <text style="font-size: 9px; font-family: 'DejaVu Sans'; text-anchor: middle" x="404.357002" y="182.638834" transform="rotate(-0 404.357002 182.638834)">Diffusion</text>
   </g>
   <g id="legend_4">
    <g id="line2d_106">
     <path d="M 447.915949 195.80774 
L 454.915949 195.80774 
L 461.915949 195.80774 
" style="fill: none; stroke: #0072b2; stroke-width: 1.6; stroke-linecap: square"/>
    </g>
    <g id="text_51">
     <text style="font-size: 7px; font-family: 'DejaVu Sans'; text-anchor: start" x="467.515949" y="198.25774" transform="rotate(-0 467.515949 198.25774)">train noise</text>
    </g>
    <g id="line2d_107">
     <path d="M 447.915949 206.082427 
L 454.915949 206.082427 
L 461.915949 206.082427 
" style="fill: none; stroke: #d55e00; stroke-width: 1.4; stroke-linecap: square"/>
     <g>
      <use xlink:href="#m7ea965c3ea" x="454.915949" y="206.082427" style="fill: #d55e00; stroke: #d55e00"/>
     </g>
    </g>
    <g id="text_52">
     <text style="font-size: 7px; font-family: 'DejaVu Sans'; text-anchor: start" x="467.515949" y="208.532427" transform="rotate(-0 467.515949 208.532427)">val noise</text>
    </g>
   </g>
  </g>
 </g>
 <defs>
  <clipPath id="pa1a214b3d8">
   <rect x="40.54274" y="13.838834" width="213.187894" height="129.475926"/>
  </clipPath>
  <clipPath id="p759389b8a5">
   <rect x="297.763055" y="13.838834" width="213.187894" height="129.475926"/>
  </clipPath>
  <clipPath id="p2e77b661e4">
   <rect x="40.54274" y="186.638834" width="213.187894" height="129.475926"/>
  </clipPath>
  <clipPath id="p8476603d39">
   <rect x="297.763055" y="186.638834" width="213.187894" height="129.475926"/>
  </clipPath>
 </defs>
</svg>
