<?xml version="1.0" encoding="utf-8" standalone="no"?>
<!DOCTYPE svg PUBLIC "-//W3C//DTD SVG 1.1//EN"
  "http://www.w3.org/Graphics/SVG/1.1/DTD/svg11.dtd">
<svg xmlns:xlink="http://www.w3.org/1999/xlink" width="515.617278pt" height="178.273738pt" viewBox="0 0 515.617278 178.273738" xmlns="http://www.w3.org/2000/svg" version="1.1">
 <metadata>
  <rdf:RDF xmlns:dc="http://purl.org/dc/elements/1.1/" xmlns:cc="http://creativecommons.org/ns#" xmlns:rdf="http://www.w3.org/1999/02/22-rdf-syntax-ns#">
   <cc:Work>
    <dc:type rdf:resource="http://purl.org/dc/dcmitype/StillImage"/>
    <dc:date>2026-05-15T02:50:02.828680</dc:date>
    <dc:format>image/svg+xml</dc:format>
    <dc:creator>
     <cc:Agent>
      <dc:title>Matplotlib v3.10.8, https://matplotlib.org/</dc:title>
     </cc:Agent>
    </dc:creator>
   </cc:Work>
  </rdf:RDF>
 </metadata>
 <defs>
  <style type="text/css">*{stroke-linejoin: round; stroke-linecap: butt}</style>
 </defs>
 <g id="figure_1">
  <g id="patch_1">
   <path d="M 0 178.273738 
L 515.617278 178.273738 
L 515.617278 0 
L 0 0 
z
" style="fill: #ffffff"/>
  </g>
  <g id="axes_1">
   <g id="patch_2">
    <path d="M 34.170387 133.865974 
L 285.942593 133.865974 
L 285.942593 16.774617 
L 34.170387 16.774617 
z
" style="fill: #ffffff"/>
   </g>
   <g id="matplotlib.axis_1">
    <g id="xtick_1">
     <g id="text_1">
      <text style="font-size: 6.8px; font-family: 'DejaVu Sans'; fill: #333333" transform="translate(21.453709 160.448135) rotate(-35)">Full mild</text>
     </g>
    </g>
    <g id="xtick_2">
     <g id="text_2">
      <text style="font-size: 6.8px; font-family: 'DejaVu Sans'; fill: #333333" transform="translate(57.517397 161.907098) rotate(-35)">Full mod.</text>
     </g>
    </g>
    <g id="xtick_3">
     <g id="text_3">
      <text style="font-size: 6.8px; font-family: 'DejaVu Sans'; fill: #333333" transform="translate(92.080604 164.41671) rotate(-35)">Full strong</text>
     </g>
    </g>
    <g id="xtick_4">
     <g id="text_4">
      <text style="font-size: 6.8px; font-family: 'DejaVu Sans'; fill: #333333" transform="translate(133.691027 161.991808) rotate(-35)">Gaussian</text>
     </g>
    </g>
    <g id="xtick_5">
     <g id="text_5">
      <text style="font-size: 6.8px; font-family: 'DejaVu Sans'; fill: #333333" transform="translate(185.219077 152.622509) rotate(-35)">Drift</text>
     </g>
    </g>
    <g id="xtick_6">
     <g id="text_6">
      <text style="font-size: 6.8px; font-family: 'DejaVu Sans'; fill: #333333" transform="translate(216.629009 157.340067) rotate(-35)">Outlier</text>
     </g>
    </g>
    <g id="xtick_7">
     <g id="text_7">
      <text style="font-size: 6.8px; font-family: 'DejaVu Sans'; fill: #333333" transform="translate(244.936147 164.230226) rotate(-35)">Drop.+lat.</text>
     </g>
    </g>
    <g id="text_8">
     <text style="font-size: 7.5px; font-family: 'DejaVu Sans'; text-anchor: middle; fill: #222222" x="160.05649" y="175.273973" transform="rotate(-0 160.05649 175.273973)">Observation condition</text>
    </g>
   </g>
   <g id="matplotlib.axis_2">
    <g id="ytick_1">
     <g id="text_9">
      <text style="font-size: 6.8px; font-family: 'DejaVu Sans'; text-anchor: end; fill: #333333" x="28.170387" y="125.297885" transform="rotate(-0 28.170387 125.297885)">−20</text>
     </g>
    </g>
    <g id="ytick_2">
     <g id="text_10">
      <text style="font-size: 6.8px; font-family: 'DejaVu Sans'; text-anchor: end; fill: #333333" x="28.170387" y="102.99477" transform="rotate(-0 28.170387 102.99477)">0</text>
     </g>
    </g>
    <g id="ytick_3">
     <g id="text_11">
      <text style="font-size: 6.8px; font-family: 'DejaVu Sans'; text-anchor: end; fill: #333333" x="28.170387" y="80.691654" transform="rotate(-0 28.170387 80.691654)">20</text>
     </g>
    </g>
    <g id="ytick_4">
     <g id="text_12">
      <text style="font-size: 6.8px; font-family: 'DejaVu Sans'; text-anchor: end; fill: #333333" x="28.170387" y="58.388538" transform="rotate(-0 28.170387 58.388538)">40</text>
     </g>
    </g>
    <g id="ytick_5">
     <g id="text_13">
      <text style="font-size: 6.8px; font-family: 'DejaVu Sans'; text-anchor: end; fill: #333333" x="28.170387" y="36.085423" transform="rotate(-0 28.170387 36.085423)">60</text>
     </g>
    </g>
    <g id="text_14">
     <text style="font-size: 7.5px; font-family: 'DejaVu Sans'; text-anchor: middle; fill: #222222" x="8.259434" y="75.320296" transform="rotate(-90 8.259434 75.320296)">Best learned minus raw expert (pp)</text>
    </g>
   </g>
   <g id="line2d_1">
    <path d="M 34.170387 100.411301 
L 285.942593 100.411301 
" clip-path="url(#pbd35c87079)" style="fill: none; stroke: #6e6e6e; stroke-width: 0.8; stroke-linecap: round"/>
   </g>
   <g id="LineCollection_1">
    <path d="M 45.614578 100.411301 
L 45.614578 116.023482 
" clip-path="url(#pbd35c87079)" style="fill: none; stroke: #d8d8d8; stroke-width: 1.7"/>
    <path d="M 83.761882 100.411301 
L 83.761882 38.520155 
" clip-path="url(#pbd35c87079)" style="fill: none; stroke: #d8d8d8; stroke-width: 1.7"/>
    <path d="M 121.909186 100.411301 
L 121.909186 64.168738 
" clip-path="url(#pbd35c87079)" style="fill: none; stroke: #d8d8d8; stroke-width: 1.7"/>
    <path d="M 160.05649 100.411301 
L 160.05649 26.253441 
" clip-path="url(#pbd35c87079)" style="fill: none; stroke: #d8d8d8; stroke-width: 1.7"/>
    <path d="M 198.203794 100.411301 
L 198.203794 117.138638 
" clip-path="url(#pbd35c87079)" style="fill: none; stroke: #d8d8d8; stroke-width: 1.7"/>
    <path d="M 236.351098 100.411301 
L 236.351098 112.120436 
" clip-path="url(#pbd35c87079)" style="fill: none; stroke: #d8d8d8; stroke-width: 1.7"/>
    <path d="M 274.498402 100.411301 
L 274.498402 108.774969 
" clip-path="url(#pbd35c87079)" style="fill: none; stroke: #d8d8d8; stroke-width: 1.7"/>
   </g>
   <g id="patch_3">
    <path d="M 34.170387 133.865974 
L 34.170387 16.774617 
" style="fill: none; stroke: #333333; stroke-width: 0.7; stroke-linejoin: miter; stroke-linecap: square"/>
   </g>
   <g id="patch_4">
    <path d="M 34.170387 133.865974 
L 285.942593 133.865974 
" style="fill: none; stroke: #333333; stroke-width: 0.7; stroke-linejoin: miter; stroke-linecap: square"/>
   </g>
   <g id="PathCollection_1">
    <defs>
     <path id="C0_0_1e559c5a3e" d="M 0 2.645751 
C 0.701661 2.645751 1.374679 2.366978 1.870829 1.870829 
C 2.366978 1.374679 2.645751 0.701661 2.645751 -0 
C 2.645751 -0.701661 2.366978 -1.374679 1.870829 -1.870829 
C 1.374679 -2.366978 0.701661 -2.645751 0 -2.645751 
C -0.701661 -2.645751 -1.374679 -2.366978 -1.870829 -1.870829 
C -2.366978 -1.374679 -2.645751 -0.701661 -2.645751 0 
C -2.645751 0.701661 -2.366978 1.374679 -1.870829 1.870829 
C -1.374679 2.366978 -0.701661 2.645751 0 2.645751 
z
"/>
    </defs>
    <g clip-path="url(#pbd35c87079)">
     <use xlink:href="#C0_0_1e559c5a3e" x="45.614578" y="116.023482" style="fill: #6e6e6e; stroke: #6e6e6e; stroke-width: 0.8"/>
    </g>
    <g clip-path="url(#pbd35c87079)">
     <use xlink:href="#C0_0_1e559c5a3e" x="83.761882" y="38.520155" style="fill: #0072b2; stroke: #0072b2; stroke-width: 0.8"/>
    </g>
    <g clip-path="url(#pbd35c87079)">
     <use xlink:href="#C0_0_1e559c5a3e" x="121.909186" y="64.168738" style="fill: #0072b2; stroke: #0072b2; stroke-width: 0.8"/>
    </g>
    <g clip-path="url(#pbd35c87079)">
     <use xlink:href="#C0_0_1e559c5a3e" x="160.05649" y="26.253441" style="fill: #0072b2; stroke: #0072b2; stroke-width: 0.8"/>
    </g>
    <g clip-path="url(#pbd35c87079)">
     <use xlink:href="#C0_0_1e559c5a3e" x="198.203794" y="117.138638" style="fill: #6e6e6e; stroke: #6e6e6e; stroke-width: 0.8"/>
    </g>
    <g clip-path="url(#pbd35c87079)">
     <use xlink:href="#C0_0_1e559c5a3e" x="236.351098" y="112.120436" style="fill: #6e6e6e; stroke: #6e6e6e; stroke-width: 0.8"/>
    </g>
    <g clip-path="url(#pbd35c87079)">
     <use xlink:href="#C0_0_1e559c5a3e" x="274.498402" y="108.774969" style="fill: #6e6e6e; stroke: #6e6e6e; stroke-width: 0.8"/>
    </g>
   </g>
   <g id="text_15">
    <text style="font-size: 6.2px; font-family: 'DejaVu Sans'; text-anchor: middle; fill: #222222" x="45.614578" y="123.522402" transform="rotate(-0 45.614578 123.522402)">-14.0</text>
   </g>
   <g id="text_16">
    <text style="font-size: 6.2px; font-family: 'DejaVu Sans'; text-anchor: middle; fill: #222222" x="83.761882" y="34.442859" transform="rotate(-0 83.761882 34.442859)">+55.5</text>
   </g>
   <g id="text_17">
    <text style="font-size: 6.2px; font-family: 'DejaVu Sans'; text-anchor: middle; fill: #222222" x="121.909186" y="60.091442" transform="rotate(-0 121.909186 60.091442)">+32.5</text>
   </g>
   <g id="text_18">
    <text style="font-size: 6.2px; font-family: 'DejaVu Sans'; text-anchor: middle; fill: #222222" x="160.05649" y="22.176146" transform="rotate(-0 160.05649 22.176146)">+66.5</text>
   </g>
   <g id="text_19">
    <text style="font-size: 6.2px; font-family: 'DejaVu Sans'; text-anchor: middle; fill: #222222" x="198.203794" y="124.637558" transform="rotate(-0 198.203794 124.637558)">-15.0</text>
   </g>
   <g id="text_20">
    <text style="font-size: 6.2px; font-family: 'DejaVu Sans'; text-anchor: middle; fill: #222222" x="236.351098" y="119.619357" transform="rotate(-0 236.351098 119.619357)">-10.5</text>
   </g>
   <g id="text_21">
    <text style="font-size: 6.2px; font-family: 'DejaVu Sans'; text-anchor: middle; fill: #222222" x="274.498402" y="116.27389" transform="rotate(-0 274.498402 116.27389)">-7.5</text>
   </g>
   <g id="text_22">
    <text style="font-weight: 700; font-size: 8px; font-family: 'DejaVu Sans'; text-anchor: start; fill: #222222" x="1.44" y="8.085386" transform="rotate(-0 1.44 8.085386)">a</text>
   </g>
  </g>
  <g id="axes_2">
   <g id="patch_5">
    <path d="M 322.181167 133.865974 
L 513.528043 133.865974 
L 513.528043 16.774617 
L 322.181167 16.774617 
z
" style="fill: #ffffff"/>
   </g>
   <g id="matplotlib.axis_3">
    <g id="xtick_8">
     <g id="text_23">
      <text style="font-size: 6.8px; font-family: 'DejaVu Sans'; fill: #333333" transform="translate(304.513289 161.991808) rotate(-35)">Gaussian</text>
     </g>
    </g>
    <g id="xtick_9">
     <g id="text_24">
      <text style="font-size: 6.8px; font-family: 'DejaVu Sans'; fill: #333333" transform="translate(391.61012 161.907098) rotate(-35)">Full mod.</text>
     </g>
    </g>
    <g id="xtick_10">
     <g id="text_25">
      <text style="font-size: 6.8px; font-family: 'DejaVu Sans'; fill: #333333" transform="translate(475.001876 164.41671) rotate(-35)">Full strong</text>
     </g>
    </g>
    <g id="text_26">
     <text style="font-size: 7.5px; font-family: 'DejaVu Sans'; text-anchor: middle; fill: #222222" x="417.854605" y="175.273973" transform="rotate(-0 417.854605 175.273973)">Filtered expert ablation</text>
    </g>
   </g>
   <g id="matplotlib.axis_4">
    <g id="ytick_6">
     <g id="text_27">
      <text style="font-size: 6.8px; font-family: 'DejaVu Sans'; text-anchor: end; fill: #333333" x="316.181167" y="136.449443" transform="rotate(-0 316.181167 136.449443)">0</text>
     </g>
    </g>
    <g id="ytick_7">
     <g id="text_28">
      <text style="font-size: 6.8px; font-family: 'DejaVu Sans'; text-anchor: end; fill: #333333" x="316.181167" y="113.931874" transform="rotate(-0 316.181167 113.931874)">20</text>
     </g>
    </g>
    <g id="ytick_8">
     <g id="text_29">
      <text style="font-size: 6.8px; font-family: 'DejaVu Sans'; text-anchor: end; fill: #333333" x="316.181167" y="91.414306" transform="rotate(-0 316.181167 91.414306)">40</text>
     </g>
    </g>
    <g id="ytick_9">
     <g id="text_30">
      <text style="font-size: 6.8px; font-family: 'DejaVu Sans'; text-anchor: end; fill: #333333" x="316.181167" y="68.896737" transform="rotate(-0 316.181167 68.896737)">60</text>
     </g>
    </g>
    <g id="ytick_10">
     <g id="text_31">
      <text style="font-size: 6.8px; font-family: 'DejaVu Sans'; text-anchor: end; fill: #333333" x="316.181167" y="46.379168" transform="rotate(-0 316.181167 46.379168)">80</text>
     </g>
    </g>
    <g id="ytick_11">
     <g id="text_32">
      <text style="font-size: 6.8px; font-family: 'DejaVu Sans'; text-anchor: end; fill: #333333" x="316.181167" y="23.8616" transform="rotate(-0 316.181167 23.8616)">100</text>
     </g>
    </g>
    <g id="text_33">
     <text style="font-size: 7.5px; font-family: 'DejaVu Sans'; text-anchor: middle; fill: #222222" x="297.641901" y="75.320296" transform="rotate(-90 297.641901 75.320296)">Success rate (%)</text>
    </g>
   </g>
   <g id="LineCollection_2">
    <path d="M 330.878752 131.051278 
L 330.878752 28.033401 
" clip-path="url(#p7438ad871f)" style="fill: none; stroke: #d8d8d8; stroke-width: 1.8"/>
    <path d="M 417.854605 131.051278 
L 417.854605 38.166307 
" clip-path="url(#p7438ad871f)" style="fill: none; stroke: #d8d8d8; stroke-width: 1.8"/>
    <path d="M 504.830458 133.865974 
L 504.830458 78.697931 
" clip-path="url(#p7438ad871f)" style="fill: none; stroke: #d8d8d8; stroke-width: 1.8"/>
   </g>
   <g id="patch_6">
    <path d="M 322.181167 133.865974 
L 322.181167 16.774617 
" style="fill: none; stroke: #333333; stroke-width: 0.7; stroke-linejoin: miter; stroke-linecap: square"/>
   </g>
   <g id="patch_7">
    <path d="M 322.181167 133.865974 
L 513.528043 133.865974 
" style="fill: none; stroke: #333333; stroke-width: 0.7; stroke-linejoin: miter; stroke-linecap: square"/>
   </g>
   <g id="PathCollection_2">
    <defs>
     <path id="m3518ef4863" d="M 0 2.54951 
C 0.676138 2.54951 1.324674 2.280877 1.802776 1.802776 
C 2.280877 1.324674 2.54951 0.676138 2.54951 0 
C 2.54951 -0.676138 2.280877 -1.324674 1.802776 -1.802776 
C 1.324674 -2.280877 0.676138 -2.54951 0 -2.54951 
C -0.676138 -2.54951 -1.324674 -2.280877 -1.802776 -1.802776 
C -2.280877 -1.324674 -2.54951 -0.676138 -2.54951 0 
C -2.54951 0.676138 -2.280877 1.324674 -1.802776 1.802776 
C -1.324674 2.280877 -0.676138 2.54951 0 2.54951 
z
" style="stroke: #6e6e6e; stroke-width: 0.8"/>
    </defs>
    <g clip-path="url(#p7438ad871f)">
     <use xlink:href="#m3518ef4863" x="330.878752" y="131.051278" style="fill: #6e6e6e; stroke: #6e6e6e; stroke-width: 0.8"/>
     <use xlink:href="#m3518ef4863" x="417.854605" y="131.051278" style="fill: #6e6e6e; stroke: #6e6e6e; stroke-width: 0.8"/>
     <use xlink:href="#m3518ef4863" x="504.830458" y="133.865974" style="fill: #6e6e6e; stroke: #6e6e6e; stroke-width: 0.8"/>
    </g>
   </g>
   <g id="text_34">
    <text style="font-size: 6.1px; font-family: 'DejaVu Sans'; text-anchor: middle; fill: #222222" x="330.878752" y="23.387157" transform="rotate(-0 330.878752 23.387157)">+91.5</text>
   </g>
   <g id="text_35">
    <text style="font-size: 6.1px; font-family: 'DejaVu Sans'; text-anchor: middle; fill: #222222" x="417.854605" y="33.520063" transform="rotate(-0 417.854605 33.520063)">+82.5</text>
   </g>
   <g id="text_36">
    <text style="font-size: 6.1px; font-family: 'DejaVu Sans'; text-anchor: middle; fill: #222222" x="504.830458" y="74.051686" transform="rotate(-0 504.830458 74.051686)">+49.0</text>
   </g>
   <g id="text_37">
    <text style="font-weight: 700; font-size: 8px; font-family: 'DejaVu Sans'; text-anchor: start; fill: #222222" x="297.306073" y="8.085386" transform="rotate(-0 297.306073 8.085386)">b</text>
   </g>
   <g id="PathCollection_3">
    <defs>
     <path id="m3146beda05" d="M 0 2.738613 
C 0.726289 2.738613 1.422928 2.450055 1.936492 1.936492 
C 2.450055 1.422928 2.738613 0.726289 2.738613 0 
C 2.738613 -0.726289 2.450055 -1.422928 1.936492 -1.936492 
C 1.422928 -2.450055 0.726289 -2.738613 0 -2.738613 
C -0.726289 -2.738613 -1.422928 -2.450055 -1.936492 -1.936492 
C -2.450055 -1.422928 -2.738613 -0.726289 -2.738613 0 
C -2.738613 0.726289 -2.450055 1.422928 -1.936492 1.936492 
C -1.422928 2.450055 -0.726289 2.738613 0 2.738613 
z
" style="stroke: #ffffff; stroke-width: 0.4"/>
    </defs>
    <g clip-path="url(#p7438ad871f)">
     <use xlink:href="#m3146beda05" x="330.878752" y="28.033401" style="fill: #009e73; stroke: #ffffff; stroke-width: 0.4"/>
     <use xlink:href="#m3146beda05" x="417.854605" y="38.166307" style="fill: #009e73; stroke: #ffffff; stroke-width: 0.4"/>
     <use xlink:href="#m3146beda05" x="504.830458" y="78.697931" style="fill: #009e73; stroke: #ffffff; stroke-width: 0.4"/>
    </g>
   </g>
   <g id="legend_1">
    <g id="PathCollection_4">
     <g>
      <use xlink:href="#m3518ef4863" x="435.732668" y="7.541937" style="fill: #6e6e6e; stroke: #6e6e6e; stroke-width: 0.8"/>
     </g>
    </g>
    <g id="text_38">
     <text style="font-size: 6.8px; font-family: 'DejaVu Sans'; text-anchor: start; fill: #222222" x="444.572668" y="9.326937" transform="rotate(-0 444.572668 9.326937)">raw FSM-MPC</text>
    </g>
    <g id="PathCollection_5">
     <g>
      <use xlink:href="#m3146beda05" x="435.732668" y="17.523062" style="fill: #009e73; stroke: #ffffff; stroke-width: 0.4"/>
     </g>
    </g>
    <g id="text_39">
     <text style="font-size: 6.8px; font-family: 'DejaVu Sans'; text-anchor: start; fill: #222222" x="444.572668" y="19.308062" transform="rotate(-0 444.572668 19.308062)">FSM-MPC + Kalman</text>
    </g>
   </g>
  </g>
 </g>
 <defs>
  <clipPath id="pbd35c87079">
   <rect x="34.170387" y="16.774617" width="251.772206" height="117.091357"/>
  </clipPath>
  <clipPath id="p7438ad871f">
   <rect x="322.181167" y="16.774617" width="191.346877" height="117.091357"/>
  </clipPath>
 </defs>
</svg>
