<?xml version="1.0" encoding="utf-8" standalone="no"?>
<!DOCTYPE svg PUBLIC "-//W3C//DTD SVG 1.1//EN"
  "http://www.w3.org/Graphics/SVG/1.1/DTD/svg11.dtd">
<svg xmlns:xlink="http://www.w3.org/1999/xlink" width="515.615386pt" height="172.625659pt" viewBox="0 0 515.615386 172.625659" xmlns="http://www.w3.org/2000/svg" version="1.1">
 <metadata>
  <rdf:RDF xmlns:dc="http://purl.org/dc/elements/1.1/" xmlns:cc="http://creativecommons.org/ns#" xmlns:rdf="http://www.w3.org/1999/02/22-rdf-syntax-ns#">
   <cc:Work>
    <dc:type rdf:resource="http://purl.org/dc/dcmitype/StillImage"/>
    <dc:date>2026-05-15T02:50:00.836240</dc:date>
    <dc:format>image/svg+xml</dc:format>
    <dc:creator>
     <cc:Agent>
      <dc:title>Matplotlib v3.10.8, https://matplotlib.org/</dc:title>
     </cc:Agent>
    </dc:creator>
   </cc:Work>
  </rdf:RDF>
 </metadata>
 <defs>
  <style type="text/css">*{stroke-linejoin: round; stroke-linecap: butt}</style>
 </defs>
 <g id="figure_1">
  <g id="patch_1">
   <path d="M 0 172.625659 
L 515.615386 172.625659 
L 515.615386 0 
L 0 0 
z
" style="fill: #ffffff"/>
  </g>
  <g id="axes_1">
   <g id="patch_2">
    <path d="M 33.681494 151.032115 
L 281.69299 151.032115 
L 281.69299 17.211724 
L 33.681494 17.211724 
z
" style="fill: #ffffff"/>
   </g>
   <g id="line2d_1">
    <path d="M 33.681494 151.032115 
L 281.69299 151.032115 
" clip-path="url(#pcecabc7725)" style="fill: none; stroke: #d8d8d8; stroke-width: 0.8; stroke-linecap: round"/>
   </g>
   <g id="matplotlib.axis_1">
    <g id="xtick_1">
     <g id="text_1">
      <text style="font-size: 6.8px; font-family: 'DejaVu Sans'; fill: #333333" transform="translate(35.610687 164.428652) rotate(-15)">BC</text>
     </g>
    </g>
    <g id="xtick_2">
     <g id="text_2">
      <text style="font-size: 6.8px; font-family: 'DejaVu Sans'; fill: #333333" transform="translate(94.004216 168.919874) rotate(-15)">BC-RNN</text>
     </g>
    </g>
    <g id="xtick_3">
     <g id="text_3">
      <text style="font-size: 6.8px; font-family: 'DejaVu Sans'; fill: #333333" transform="translate(181.922234 165.500033) rotate(-15)">ACT</text>
     </g>
    </g>
    <g id="xtick_4">
     <g id="text_4">
      <text style="font-size: 6.8px; font-family: 'DejaVu Sans'; fill: #333333" transform="translate(240.956172 169.819659) rotate(-15)">Diffusion</text>
     </g>
    </g>
   </g>
   <g id="matplotlib.axis_2">
    <g id="ytick_1">
     <g id="text_5">
      <text style="font-size: 6.8px; font-family: 'DejaVu Sans'; text-anchor: end; fill: #333333" x="27.681494" y="153.615584" transform="rotate(-0 27.681494 153.615584)">80</text>
     </g>
    </g>
    <g id="ytick_2">
     <g id="text_6">
      <text style="font-size: 6.8px; font-family: 'DejaVu Sans'; text-anchor: end; fill: #333333" x="27.681494" y="133.027831" transform="rotate(-0 27.681494 133.027831)">82</text>
     </g>
    </g>
    <g id="ytick_3">
     <g id="text_7">
      <text style="font-size: 6.8px; font-family: 'DejaVu Sans'; text-anchor: end; fill: #333333" x="27.681494" y="112.440079" transform="rotate(-0 27.681494 112.440079)">84</text>
     </g>
    </g>
    <g id="ytick_4">
     <g id="text_8">
      <text style="font-size: 6.8px; font-family: 'DejaVu Sans'; text-anchor: end; fill: #333333" x="27.681494" y="91.852326" transform="rotate(-0 27.681494 91.852326)">86</text>
     </g>
    </g>
    <g id="ytick_5">
     <g id="text_9">
      <text style="font-size: 6.8px; font-family: 'DejaVu Sans'; text-anchor: end; fill: #333333" x="27.681494" y="71.264574" transform="rotate(-0 27.681494 71.264574)">88</text>
     </g>
    </g>
    <g id="ytick_6">
     <g id="text_10">
      <text style="font-size: 6.8px; font-family: 'DejaVu Sans'; text-anchor: end; fill: #333333" x="27.681494" y="50.676821" transform="rotate(-0 27.681494 50.676821)">90</text>
     </g>
    </g>
    <g id="ytick_7">
     <g id="text_11">
      <text style="font-size: 6.8px; font-family: 'DejaVu Sans'; text-anchor: end; fill: #333333" x="27.681494" y="30.089069" transform="rotate(-0 27.681494 30.089069)">92</text>
     </g>
    </g>
    <g id="text_12">
     <text style="font-size: 7.5px; font-family: 'DejaVu Sans'; text-anchor: middle; fill: #222222" x="13.468729" y="84.121919" transform="rotate(-90 13.468729 84.121919)">Success rate (%)</text>
    </g>
   </g>
   <g id="LineCollection_1">
    <path d="M 44.954744 117.062323 
L 44.954744 65.592942 
" clip-path="url(#pcecabc7725)" style="fill: none; stroke: #6e6e6e; stroke-width: 1.1"/>
   </g>
   <g id="LineCollection_2">
    <path d="M 120.109743 113.974161 
L 120.109743 63.534167 
" clip-path="url(#pcecabc7725)" style="fill: none; stroke: #6e6e6e; stroke-width: 1.1"/>
   </g>
   <g id="LineCollection_3">
    <path d="M 195.264742 111.915385 
L 195.264742 61.475392 
" clip-path="url(#pcecabc7725)" style="fill: none; stroke: #6e6e6e; stroke-width: 1.1"/>
   </g>
   <g id="LineCollection_4">
    <path d="M 270.41974 103.680284 
L 270.41974 54.269678 
" clip-path="url(#pcecabc7725)" style="fill: none; stroke: #6e6e6e; stroke-width: 1.1"/>
   </g>
   <g id="patch_3">
    <path d="M 33.681494 151.032115 
L 33.681494 17.211724 
" style="fill: none; stroke: #333333; stroke-width: 0.7; stroke-linejoin: miter; stroke-linecap: square"/>
   </g>
   <g id="patch_4">
    <path d="M 33.681494 151.032115 
L 281.69299 151.032115 
" style="fill: none; stroke: #333333; stroke-width: 0.7; stroke-linejoin: miter; stroke-linecap: square"/>
   </g>
   <g id="PathCollection_1">
    <defs>
     <path id="m699aed034b" d="M 0 2.915476 
C 0.773193 2.915476 1.514823 2.608283 2.061553 2.061553 
C 2.608283 1.514823 2.915476 0.773193 2.915476 0 
C 2.915476 -0.773193 2.608283 -1.514823 2.061553 -2.061553 
C 1.514823 -2.608283 0.773193 -2.915476 0 -2.915476 
C -0.773193 -2.915476 -1.514823 -2.608283 -2.061553 -2.061553 
C -2.608283 -1.514823 -2.915476 -0.773193 -2.915476 0 
C -2.915476 0.773193 -2.608283 1.514823 -2.061553 2.061553 
C -1.514823 2.608283 -0.773193 2.915476 0 2.915476 
z
" style="stroke: #ffffff; stroke-width: 0.5"/>
    </defs>
    <g clip-path="url(#pcecabc7725)">
     <use xlink:href="#m699aed034b" x="44.954744" y="89.268858" style="fill: #0072b2; stroke: #ffffff; stroke-width: 0.5"/>
    </g>
   </g>
   <g id="text_13">
    <text style="font-size: 6.2px; font-family: 'DejaVu Sans'; text-anchor: middle; fill: #222222" x="44.954744" y="77.685575" transform="rotate(-0 44.954744 77.685575)">86.0</text>
   </g>
   <g id="PathCollection_2">
    <defs>
     <path id="m3c44e42599" d="M 0 2.915476 
C 0.773193 2.915476 1.514823 2.608283 2.061553 2.061553 
C 2.608283 1.514823 2.915476 0.773193 2.915476 0 
C 2.915476 -0.773193 2.608283 -1.514823 2.061553 -2.061553 
C 1.514823 -2.608283 0.773193 -2.915476 0 -2.915476 
C -0.773193 -2.915476 -1.514823 -2.608283 -2.061553 -2.061553 
C -2.608283 -1.514823 -2.915476 -0.773193 -2.915476 0 
C -2.915476 0.773193 -2.608283 1.514823 -2.061553 2.061553 
C -1.514823 2.608283 -0.773193 2.915476 0 2.915476 
z
" style="stroke: #ffffff; stroke-width: 0.5"/>
    </defs>
    <g clip-path="url(#pcecabc7725)">
     <use xlink:href="#m3c44e42599" x="120.109743" y="86.180695" style="fill: #56b4e9; stroke: #ffffff; stroke-width: 0.5"/>
    </g>
   </g>
   <g id="text_14">
    <text style="font-size: 6.2px; font-family: 'DejaVu Sans'; text-anchor: middle; fill: #222222" x="120.109743" y="74.597412" transform="rotate(-0 120.109743 74.597412)">86.3</text>
   </g>
   <g id="PathCollection_3">
    <defs>
     <path id="m711483ba0e" d="M 0 2.915476 
C 0.773193 2.915476 1.514823 2.608283 2.061553 2.061553 
C 2.608283 1.514823 2.915476 0.773193 2.915476 0 
C 2.915476 -0.773193 2.608283 -1.514823 2.061553 -2.061553 
C 1.514823 -2.608283 0.773193 -2.915476 0 -2.915476 
C -0.773193 -2.915476 -1.514823 -2.608283 -2.061553 -2.061553 
C -2.608283 -1.514823 -2.915476 -0.773193 -2.915476 0 
C -2.915476 0.773193 -2.608283 1.514823 -2.061553 2.061553 
C -1.514823 2.608283 -0.773193 2.915476 0 2.915476 
z
" style="stroke: #ffffff; stroke-width: 0.5"/>
    </defs>
    <g clip-path="url(#pcecabc7725)">
     <use xlink:href="#m711483ba0e" x="195.264742" y="85.151307" style="fill: #f0e442; stroke: #ffffff; stroke-width: 0.5"/>
    </g>
   </g>
   <g id="text_15">
    <text style="font-size: 6.2px; font-family: 'DejaVu Sans'; text-anchor: middle; fill: #222222" x="195.264742" y="73.568024" transform="rotate(-0 195.264742 73.568024)">86.4</text>
   </g>
   <g id="PathCollection_4">
    <defs>
     <path id="mead532c8eb" d="M 0 2.915476 
C 0.773193 2.915476 1.514823 2.608283 2.061553 2.061553 
C 2.608283 1.514823 2.915476 0.773193 2.915476 0 
C 2.915476 -0.773193 2.608283 -1.514823 2.061553 -2.061553 
C 1.514823 -2.608283 0.773193 -2.915476 0 -2.915476 
C -0.773193 -2.915476 -1.514823 -2.608283 -2.061553 -2.061553 
C -2.608283 -1.514823 -2.915476 -0.773193 -2.915476 0 
C -2.915476 0.773193 -2.608283 1.514823 -2.061553 2.061553 
C -1.514823 2.608283 -0.773193 2.915476 0 2.915476 
z
" style="stroke: #ffffff; stroke-width: 0.5"/>
    </defs>
    <g clip-path="url(#pcecabc7725)">
     <use xlink:href="#mead532c8eb" x="270.41974" y="76.916206" style="fill: #cc79a7; stroke: #ffffff; stroke-width: 0.5"/>
    </g>
   </g>
   <g id="text_16">
    <text style="font-size: 6.2px; font-family: 'DejaVu Sans'; text-anchor: middle; fill: #222222" x="270.41974" y="65.332923" transform="rotate(-0 270.41974 65.332923)">87.2</text>
   </g>
   <g id="text_17">
    <text style="font-weight: 700; font-size: 8px; font-family: 'DejaVu Sans'; text-anchor: start; fill: #222222" x="1.44" y="7.51875" transform="rotate(-0 1.44 7.51875)">a</text>
   </g>
  </g>
  <g id="axes_2">
   <g id="patch_5">
    <path d="M 315.766189 151.032115 
L 514.175386 151.032115 
L 514.175386 17.211724 
L 315.766189 17.211724 
z
" style="fill: #ffffff"/>
   </g>
   <g id="matplotlib.axis_3">
    <g id="xtick_5">
     <g id="text_18">
      <text style="font-size: 6.8px; font-family: 'DejaVu Sans'; fill: #333333" transform="translate(315.440731 164.428652) rotate(-15)">BC</text>
     </g>
    </g>
    <g id="xtick_6">
     <g id="text_19">
      <text style="font-size: 6.8px; font-family: 'DejaVu Sans'; fill: #333333" transform="translate(358.803261 168.919874) rotate(-15)">BC-RNN</text>
     </g>
    </g>
    <g id="xtick_7">
     <g id="text_20">
      <text style="font-size: 6.8px; font-family: 'DejaVu Sans'; fill: #333333" transform="translate(431.690279 165.500033) rotate(-15)">ACT</text>
     </g>
    </g>
    <g id="xtick_8">
     <g id="text_21">
      <text style="font-size: 6.8px; font-family: 'DejaVu Sans'; fill: #333333" transform="translate(475.693218 169.819659) rotate(-15)">Diffusion</text>
     </g>
    </g>
   </g>
   <g id="matplotlib.axis_4">
    <g id="ytick_8">
     <g id="text_22">
      <text style="font-size: 6.8px; font-family: 'DejaVu Sans'; text-anchor: end; fill: #333333" x="309.766189" y="153.615584" transform="rotate(-0 309.766189 153.615584)">0.0</text>
     </g>
    </g>
    <g id="ytick_9">
     <g id="text_23">
      <text style="font-size: 6.8px; font-family: 'DejaVu Sans'; text-anchor: end; fill: #333333" x="309.766189" y="125.44287" transform="rotate(-0 309.766189 125.44287)">0.2</text>
     </g>
    </g>
    <g id="ytick_10">
     <g id="text_24">
      <text style="font-size: 6.8px; font-family: 'DejaVu Sans'; text-anchor: end; fill: #333333" x="309.766189" y="97.270156" transform="rotate(-0 309.766189 97.270156)">0.4</text>
     </g>
    </g>
    <g id="ytick_11">
     <g id="text_25">
      <text style="font-size: 6.8px; font-family: 'DejaVu Sans'; text-anchor: end; fill: #333333" x="309.766189" y="69.097442" transform="rotate(-0 309.766189 69.097442)">0.6</text>
     </g>
    </g>
    <g id="ytick_12">
     <g id="text_26">
      <text style="font-size: 6.8px; font-family: 'DejaVu Sans'; text-anchor: end; fill: #333333" x="309.766189" y="40.924728" transform="rotate(-0 309.766189 40.924728)">0.8</text>
     </g>
    </g>
    <g id="text_27">
     <text style="font-size: 7.5px; font-family: 'DejaVu Sans'; text-anchor: middle; fill: #222222" x="293.392298" y="84.121919" transform="rotate(-90 293.392298 84.121919)">Final EE-cube distance (m)</text>
    </g>
   </g>
   <g id="line2d_2">
    <path d="M 324.784789 147.707735 
L 324.784789 26.959483 
" clip-path="url(#p4e4ead5788)" style="fill: none; stroke: #d8d8d8; stroke-width: 2; stroke-linecap: round"/>
   </g>
   <g id="line2d_3">
    <path d="M 384.908788 147.721821 
L 384.908788 28.015959 
" clip-path="url(#p4e4ead5788)" style="fill: none; stroke: #d8d8d8; stroke-width: 2; stroke-linecap: round"/>
   </g>
   <g id="line2d_4">
    <path d="M 445.032787 147.665476 
L 445.032787 29.199213 
" clip-path="url(#p4e4ead5788)" style="fill: none; stroke: #d8d8d8; stroke-width: 2; stroke-linecap: round"/>
   </g>
   <g id="line2d_5">
    <path d="M 505.156786 147.792253 
L 505.156786 25.888919 
" clip-path="url(#p4e4ead5788)" style="fill: none; stroke: #d8d8d8; stroke-width: 2; stroke-linecap: round"/>
   </g>
   <g id="PathCollection_5"/>
   <g id="PathCollection_6"/>
   <g id="PathCollection_7"/>
   <g id="patch_6">
    <path d="M 315.766189 151.032115 
L 315.766189 17.211724 
" style="fill: none; stroke: #333333; stroke-width: 0.7; stroke-linejoin: miter; stroke-linecap: square"/>
   </g>
   <g id="patch_7">
    <path d="M 315.766189 151.032115 
L 514.175386 151.032115 
" style="fill: none; stroke: #333333; stroke-width: 0.7; stroke-linejoin: miter; stroke-linecap: square"/>
   </g>
   <g id="PathCollection_8">
    <defs>
     <path id="mb30e5e3129" d="M 0 2.54951 
C 0.676138 2.54951 1.324674 2.280877 1.802776 1.802776 
C 2.280877 1.324674 2.54951 0.676138 2.54951 0 
C 2.54951 -0.676138 2.280877 -1.324674 1.802776 -1.802776 
C 1.324674 -2.280877 0.676138 -2.54951 0 -2.54951 
C -0.676138 -2.54951 -1.324674 -2.280877 -1.802776 -1.802776 
C -2.280877 -1.324674 -2.54951 -0.676138 -2.54951 0 
C -2.54951 0.676138 -2.280877 1.324674 -1.802776 1.802776 
C -1.324674 2.280877 -0.676138 2.54951 0 2.54951 
z
" style="stroke: #ffffff; stroke-width: 0.5"/>
    </defs>
    <g clip-path="url(#p4e4ead5788)">
     <use xlink:href="#mb30e5e3129" x="324.784789" y="147.707735" style="fill: #0072b2; stroke: #ffffff; stroke-width: 0.5"/>
    </g>
   </g>
   <g id="PathCollection_9">
    <defs>
     <path id="m4be35f41cb" d="M -0 3.316625 
L 3.316625 0 
L 0 -3.316625 
L -3.316625 -0 
z
" style="stroke: #0072b2"/>
    </defs>
    <g clip-path="url(#p4e4ead5788)">
     <use xlink:href="#m4be35f41cb" x="324.784789" y="133.311478" style="fill: #ffffff; stroke: #0072b2"/>
    </g>
   </g>
   <g id="PathCollection_10">
    <defs>
     <path id="mf576587edd" d="M 4.743416 0 
L -4.743416 -0 
" style="stroke: #0072b2; stroke-width: 1.4"/>
    </defs>
    <g clip-path="url(#p4e4ead5788)">
     <use xlink:href="#mf576587edd" x="324.784789" y="26.959483" style="fill: #0072b2; stroke: #0072b2; stroke-width: 1.4"/>
    </g>
   </g>
   <g id="PathCollection_11">
    <defs>
     <path id="mb304acc5cd" d="M 0 2.54951 
C 0.676138 2.54951 1.324674 2.280877 1.802776 1.802776 
C 2.280877 1.324674 2.54951 0.676138 2.54951 0 
C 2.54951 -0.676138 2.280877 -1.324674 1.802776 -1.802776 
C 1.324674 -2.280877 0.676138 -2.54951 0 -2.54951 
C -0.676138 -2.54951 -1.324674 -2.280877 -1.802776 -1.802776 
C -2.280877 -1.324674 -2.54951 -0.676138 -2.54951 0 
C -2.54951 0.676138 -2.280877 1.324674 -1.802776 1.802776 
C -1.324674 2.280877 -0.676138 2.54951 0 2.54951 
z
" style="stroke: #ffffff; stroke-width: 0.5"/>
    </defs>
    <g clip-path="url(#p4e4ead5788)">
     <use xlink:href="#mb304acc5cd" x="384.908788" y="147.721821" style="fill: #56b4e9; stroke: #ffffff; stroke-width: 0.5"/>
    </g>
   </g>
   <g id="PathCollection_12">
    <defs>
     <path id="md8c5e6c2d8" d="M -0 3.316625 
L 3.316625 0 
L 0 -3.316625 
L -3.316625 -0 
z
" style="stroke: #56b4e9"/>
    </defs>
    <g clip-path="url(#p4e4ead5788)">
     <use xlink:href="#md8c5e6c2d8" x="384.908788" y="134.480646" style="fill: #ffffff; stroke: #56b4e9"/>
    </g>
   </g>
   <g id="PathCollection_13">
    <defs>
     <path id="ma3d535d0c4" d="M 4.743416 0 
L -4.743416 -0 
" style="stroke: #56b4e9; stroke-width: 1.4"/>
    </defs>
    <g clip-path="url(#p4e4ead5788)">
     <use xlink:href="#ma3d535d0c4" x="384.908788" y="28.015959" style="fill: #56b4e9; stroke: #56b4e9; stroke-width: 1.4"/>
    </g>
   </g>
   <g id="PathCollection_14">
    <defs>
     <path id="m705b99d614" d="M 0 2.54951 
C 0.676138 2.54951 1.324674 2.280877 1.802776 1.802776 
C 2.280877 1.324674 2.54951 0.676138 2.54951 0 
C 2.54951 -0.676138 2.280877 -1.324674 1.802776 -1.802776 
C 1.324674 -2.280877 0.676138 -2.54951 0 -2.54951 
C -0.676138 -2.54951 -1.324674 -2.280877 -1.802776 -1.802776 
C -2.280877 -1.324674 -2.54951 -0.676138 -2.54951 0 
C -2.54951 0.676138 -2.280877 1.324674 -1.802776 1.802776 
C -1.324674 2.280877 -0.676138 2.54951 0 2.54951 
z
" style="stroke: #ffffff; stroke-width: 0.5"/>
    </defs>
    <g clip-path="url(#p4e4ead5788)">
     <use xlink:href="#m705b99d614" x="445.032787" y="147.665476" style="fill: #f0e442; stroke: #ffffff; stroke-width: 0.5"/>
    </g>
   </g>
   <g id="PathCollection_15">
    <defs>
     <path id="me9dd9209f1" d="M -0 3.316625 
L 3.316625 0 
L 0 -3.316625 
L -3.316625 -0 
z
" style="stroke: #f0e442"/>
    </defs>
    <g clip-path="url(#p4e4ead5788)">
     <use xlink:href="#me9dd9209f1" x="445.032787" y="134.551077" style="fill: #ffffff; stroke: #f0e442"/>
    </g>
   </g>
   <g id="PathCollection_16">
    <defs>
     <path id="mf5f2422115" d="M 4.743416 0 
L -4.743416 -0 
" style="stroke: #f0e442; stroke-width: 1.4"/>
    </defs>
    <g clip-path="url(#p4e4ead5788)">
     <use xlink:href="#mf5f2422115" x="445.032787" y="29.199213" style="fill: #f0e442; stroke: #f0e442; stroke-width: 1.4"/>
    </g>
   </g>
   <g id="PathCollection_17">
    <defs>
     <path id="ma8eba5d0c1" d="M 0 2.54951 
C 0.676138 2.54951 1.324674 2.280877 1.802776 1.802776 
C 2.280877 1.324674 2.54951 0.676138 2.54951 0 
C 2.54951 -0.676138 2.280877 -1.324674 1.802776 -1.802776 
C 1.324674 -2.280877 0.676138 -2.54951 0 -2.54951 
C -0.676138 -2.54951 -1.324674 -2.280877 -1.802776 -1.802776 
C -2.280877 -1.324674 -2.54951 -0.676138 -2.54951 0 
C -2.54951 0.676138 -2.280877 1.324674 -1.802776 1.802776 
C -1.324674 2.280877 -0.676138 2.54951 0 2.54951 
z
" style="stroke: #ffffff; stroke-width: 0.5"/>
    </defs>
    <g clip-path="url(#p4e4ead5788)">
     <use xlink:href="#ma8eba5d0c1" x="505.156786" y="147.792253" style="fill: #cc79a7; stroke: #ffffff; stroke-width: 0.5"/>
    </g>
   </g>
   <g id="PathCollection_18">
    <defs>
     <path id="m1f14ed110c" d="M -0 3.316625 
L 3.316625 0 
L 0 -3.316625 
L -3.316625 -0 
z
" style="stroke: #cc79a7"/>
    </defs>
    <g clip-path="url(#p4e4ead5788)">
     <use xlink:href="#m1f14ed110c" x="505.156786" y="133.452342" style="fill: #ffffff; stroke: #cc79a7"/>
    </g>
   </g>
   <g id="PathCollection_19">
    <defs>
     <path id="m6c153293f5" d="M 4.743416 0 
L -4.743416 -0 
" style="stroke: #cc79a7; stroke-width: 1.4"/>
    </defs>
    <g clip-path="url(#p4e4ead5788)">
     <use xlink:href="#m6c153293f5" x="505.156786" y="25.888919" style="fill: #cc79a7; stroke: #cc79a7; stroke-width: 1.4"/>
    </g>
   </g>
   <g id="text_28">
    <text style="font-weight: 700; font-size: 8px; font-family: 'DejaVu Sans'; text-anchor: start; fill: #222222" x="289.972993" y="7.51875" transform="rotate(-0 289.972993 7.51875)">b</text>
   </g>
   <g id="legend_1">
    <g id="PathCollection_20">
     <defs>
      <path id="m5224adcbb4" d="M 0 2.44949 
C 0.649612 2.44949 1.272706 2.191396 1.732051 1.732051 
C 2.191396 1.272706 2.44949 0.649612 2.44949 0 
C 2.44949 -0.649612 2.191396 -1.272706 1.732051 -1.732051 
C 1.272706 -2.191396 0.649612 -2.44949 0 -2.44949 
C -0.649612 -2.44949 -1.272706 -2.191396 -1.732051 -1.732051 
C -2.191396 -1.272706 -2.44949 -0.649612 -2.44949 0 
C -2.44949 0.649612 -2.191396 1.272706 -1.732051 1.732051 
C -1.272706 2.191396 -0.649612 2.44949 0 2.44949 
z
" style="stroke: #6e6e6e; stroke-width: 0.8"/>
     </defs>
     <g>
      <use xlink:href="#m5224adcbb4" x="328.686189" y="9.31701" style="fill: #6e6e6e; stroke: #6e6e6e; stroke-width: 0.8"/>
     </g>
    </g>
    <g id="text_29">
     <text style="font-size: 6.8px; font-family: 'DejaVu Sans'; text-anchor: start; fill: #222222" x="338.206189" y="11.10201" transform="rotate(-0 338.206189 11.10201)">median</text>
    </g>
    <g id="PathCollection_21">
     <defs>
      <path id="m5a5e735e7a" d="M -0 3.316625 
L 3.316625 0 
L 0 -3.316625 
L -3.316625 -0 
z
" style="stroke: #6e6e6e; stroke-width: 0.8"/>
     </defs>
     <g>
      <use xlink:href="#m5a5e735e7a" x="375.936626" y="9.31701" style="fill: #ffffff; stroke: #6e6e6e; stroke-width: 0.8"/>
     </g>
    </g>
    <g id="text_30">
     <text style="font-size: 6.8px; font-family: 'DejaVu Sans'; text-anchor: start; fill: #222222" x="385.456626" y="11.10201" transform="rotate(-0 385.456626 11.10201)">mean</text>
    </g>
    <g id="PathCollection_22">
     <defs>
      <path id="m112e696c7d" d="M 4.1833 0 
L -4.1833 -0 
" style="stroke: #6e6e6e; stroke-width: 1.2"/>
     </defs>
     <g>
      <use xlink:href="#m112e696c7d" x="416.981001" y="9.31701" style="fill: #6e6e6e; stroke: #6e6e6e; stroke-width: 1.2"/>
     </g>
    </g>
    <g id="text_31">
     <text style="font-size: 6.8px; font-family: 'DejaVu Sans'; text-anchor: start; fill: #222222" x="426.501001" y="11.10201" transform="rotate(-0 426.501001 11.10201)">p95</text>
    </g>
   </g>
  </g>
 </g>
 <defs>
  <clipPath id="pcecabc7725">
   <rect x="33.681494" y="17.211724" width="248.011496" height="133.820392"/>
  </clipPath>
  <clipPath id="p4e4ead5788">
   <rect x="315.766189" y="17.211724" width="198.409197" height="133.820392"/>
  </clipPath>
 </defs>
</svg>
