<?xml version="1.0" encoding="utf-8" standalone="no"?>
<!DOCTYPE svg PUBLIC "-//W3C//DTD SVG 1.1//EN"
  "http://www.w3.org/Graphics/SVG/1.1/DTD/svg11.dtd">
<svg xmlns:xlink="http://www.w3.org/1999/xlink" width="249.162985pt" height="155.619677pt" viewBox="0 0 249.162985 155.619677" xmlns="http://www.w3.org/2000/svg" version="1.1">
 <metadata>
  <rdf:RDF xmlns:dc="http://purl.org/dc/elements/1.1/" xmlns:cc="http://creativecommons.org/ns#" xmlns:rdf="http://www.w3.org/1999/02/22-rdf-syntax-ns#">
   <cc:Work>
    <dc:type rdf:resource="http://purl.org/dc/dcmitype/StillImage"/>
    <dc:date>2026-05-15T06:17:58.801998</dc:date>
    <dc:format>image/svg+xml</dc:format>
    <dc:creator>
     <cc:Agent>
      <dc:title>Matplotlib v3.10.8, https://matplotlib.org/</dc:title>
     </cc:Agent>
    </dc:creator>
   </cc:Work>
  </rdf:RDF>
 </metadata>
 <defs>
  <style type="text/css">*{stroke-linejoin: round; stroke-linecap: butt}</style>
 </defs>
 <g id="figure_1">
  <g id="patch_1">
   <path d="M 0 155.619677 
L 249.162985 155.619677 
L 249.162985 0 
L 0 0 
z
" style="fill: #ffffff"/>
  </g>
  <g id="axes_1">
   <g id="patch_2">
    <path d="M 31.678094 123.65135 
L 247.722985 123.65135 
L 247.722985 1.44 
L 31.678094 1.44 
z
" style="fill: #ffffff"/>
   </g>
   <g id="matplotlib.axis_1">
    <g id="xtick_1">
     <g id="text_1">
      <text style="font-size: 6.8px; font-family: 'DejaVu Sans'; fill: #333333" transform="translate(225.955092 140.615799) rotate(-30)">100</text>
     </g>
    </g>
    <g id="xtick_2">
     <g id="text_2">
      <text style="font-size: 6.8px; font-family: 'DejaVu Sans'; fill: #333333" transform="translate(170.578321 138.452549) rotate(-30)">50</text>
     </g>
    </g>
    <g id="xtick_3">
     <g id="text_3">
      <text style="font-size: 6.8px; font-family: 'DejaVu Sans'; fill: #333333" transform="translate(130.289427 141.696361) rotate(-30)">33.3</text>
     </g>
    </g>
    <g id="xtick_4">
     <g id="text_4">
      <text style="font-size: 6.8px; font-family: 'DejaVu Sans'; fill: #333333" transform="translate(111.454692 138.452549) rotate(-30)">25</text>
     </g>
    </g>
    <g id="xtick_5">
     <g id="text_5">
      <text style="font-size: 6.8px; font-family: 'DejaVu Sans'; fill: #333333" transform="translate(92.421134 138.452549) rotate(-30)">20</text>
     </g>
    </g>
    <g id="xtick_6">
     <g id="text_6">
      <text style="font-size: 6.8px; font-family: 'DejaVu Sans'; fill: #333333" transform="translate(71.421562 141.696361) rotate(-30)">16.7</text>
     </g>
    </g>
    <g id="xtick_7">
     <g id="text_7">
      <text style="font-size: 6.8px; font-family: 'DejaVu Sans'; fill: #333333" transform="translate(46.712614 141.696361) rotate(-30)">12.5</text>
     </g>
    </g>
    <g id="xtick_8">
     <g id="text_8">
      <text style="font-size: 6.8px; font-family: 'DejaVu Sans'; fill: #333333" transform="translate(33.297504 138.452549) rotate(-30)">10</text>
     </g>
    </g>
    <g id="xtick_9"/>
    <g id="xtick_10"/>
    <g id="xtick_11"/>
    <g id="xtick_12"/>
    <g id="xtick_13"/>
    <g id="xtick_14"/>
    <g id="xtick_15"/>
    <g id="text_9">
     <text style="font-size: 7.5px; font-family: 'DejaVu Sans'; text-anchor: middle; fill: #222222" x="139.700539" y="152.619912" transform="rotate(-0 139.700539 152.619912)">Update frequency (Hz)</text>
    </g>
   </g>
   <g id="matplotlib.axis_2">
    <g id="ytick_1">
     <g id="text_10">
      <text style="font-size: 6.8px; font-family: 'DejaVu Sans'; text-anchor: end; fill: #333333" x="25.678094" y="126.234819" transform="rotate(-0 25.678094 126.234819)">0</text>
     </g>
    </g>
    <g id="ytick_2">
     <g id="text_11">
      <text style="font-size: 6.8px; font-family: 'DejaVu Sans'; text-anchor: end; fill: #333333" x="25.678094" y="102.956466" transform="rotate(-0 25.678094 102.956466)">20</text>
     </g>
    </g>
    <g id="ytick_3">
     <g id="text_12">
      <text style="font-size: 6.8px; font-family: 'DejaVu Sans'; text-anchor: end; fill: #333333" x="25.678094" y="79.678114" transform="rotate(-0 25.678094 79.678114)">40</text>
     </g>
    </g>
    <g id="ytick_4">
     <g id="text_13">
      <text style="font-size: 6.8px; font-family: 'DejaVu Sans'; text-anchor: end; fill: #333333" x="25.678094" y="56.399762" transform="rotate(-0 25.678094 56.399762)">60</text>
     </g>
    </g>
    <g id="ytick_5">
     <g id="text_14">
      <text style="font-size: 6.8px; font-family: 'DejaVu Sans'; text-anchor: end; fill: #333333" x="25.678094" y="33.121409" transform="rotate(-0 25.678094 33.121409)">80</text>
     </g>
    </g>
    <g id="ytick_6">
     <g id="text_15">
      <text style="font-size: 6.8px; font-family: 'DejaVu Sans'; text-anchor: end; fill: #333333" x="25.678094" y="9.843057" transform="rotate(-0 25.678094 9.843057)">100</text>
     </g>
    </g>
    <g id="text_16">
     <text style="font-size: 7.5px; font-family: 'DejaVu Sans'; text-anchor: middle; fill: #222222" x="7.138828" y="62.545675" transform="rotate(-90 7.138828 62.545675)">Success rate (%)</text>
    </g>
   </g>
   <g id="FillBetweenPolyCollection_1">
    <defs>
     <path id="mab23dacd99" d="M 237.902762 -147.07978 
L 237.902762 -132.647202 
L 178.779133 -129.504624 
L 144.108686 -129.504624 
L 119.655503 -129.504624 
L 100.621946 -120.65885 
L 85.240821 -129.504624 
L 60.531873 -97.380498 
L 41.498316 -88.069157 
L 41.498316 -118.214623 
L 41.498316 -118.214623 
L 60.531873 -126.129263 
L 85.240821 -145.915862 
L 100.621946 -141.842151 
L 119.655503 -145.915862 
L 144.108686 -145.915862 
L 178.779133 -145.915862 
L 237.902762 -147.07978 
z
"/>
    </defs>
    <g clip-path="url(#p09c031fd10)">
     <use xlink:href="#mab23dacd99" x="0" y="155.619677" style="fill: #56b4e9; fill-opacity: 0.22"/>
    </g>
   </g>
   <g id="line2d_1">
    <path d="M 237.902762 11.915259 
L 178.779133 14.243094 
L 144.108686 14.243094 
L 119.655503 14.243094 
L 100.621946 21.226599 
L 85.240821 14.243094 
L 60.531873 42.177117 
L 41.498316 51.488458 
" clip-path="url(#p09c031fd10)" style="fill: none; stroke: #0072b2; stroke-width: 1.4; stroke-linecap: round"/>
    <defs>
     <path id="m706d75b2aa" d="M 0 2.25 
C 0.596707 2.25 1.169055 2.012926 1.59099 1.59099 
C 2.012926 1.169055 2.25 0.596707 2.25 0 
C 2.25 -0.596707 2.012926 -1.169055 1.59099 -1.59099 
C 1.169055 -2.012926 0.596707 -2.25 0 -2.25 
C -0.596707 -2.25 -1.169055 -2.012926 -1.59099 -1.59099 
C -2.012926 -1.169055 -2.25 -0.596707 -2.25 0 
C -2.25 0.596707 -2.012926 1.169055 -1.59099 1.59099 
C -1.169055 2.012926 -0.596707 2.25 0 2.25 
z
" style="stroke: #0072b2"/>
    </defs>
    <g clip-path="url(#p09c031fd10)">
     <use xlink:href="#m706d75b2aa" x="237.902762" y="11.915259" style="fill: #0072b2; stroke: #0072b2"/>
     <use xlink:href="#m706d75b2aa" x="178.779133" y="14.243094" style="fill: #0072b2; stroke: #0072b2"/>
     <use xlink:href="#m706d75b2aa" x="144.108686" y="14.243094" style="fill: #0072b2; stroke: #0072b2"/>
     <use xlink:href="#m706d75b2aa" x="119.655503" y="14.243094" style="fill: #0072b2; stroke: #0072b2"/>
     <use xlink:href="#m706d75b2aa" x="100.621946" y="21.226599" style="fill: #0072b2; stroke: #0072b2"/>
     <use xlink:href="#m706d75b2aa" x="85.240821" y="14.243094" style="fill: #0072b2; stroke: #0072b2"/>
     <use xlink:href="#m706d75b2aa" x="60.531873" y="42.177117" style="fill: #0072b2; stroke: #0072b2"/>
     <use xlink:href="#m706d75b2aa" x="41.498316" y="51.488458" style="fill: #0072b2; stroke: #0072b2"/>
    </g>
   </g>
   <g id="patch_3">
    <path d="M 31.678094 123.65135 
L 31.678094 1.44 
" style="fill: none; stroke: #333333; stroke-width: 0.7; stroke-linejoin: miter; stroke-linecap: square"/>
   </g>
   <g id="patch_4">
    <path d="M 31.678094 123.65135 
L 247.722985 123.65135 
" style="fill: none; stroke: #333333; stroke-width: 0.7; stroke-linejoin: miter; stroke-linecap: square"/>
   </g>
  </g>
 </g>
 <defs>
  <clipPath id="p09c031fd10">
   <rect x="31.678094" y="1.44" width="216.044891" height="122.21135"/>
  </clipPath>
 </defs>
</svg>
