<?xml version="1.0" encoding="utf-8" standalone="no"?>
<!DOCTYPE svg PUBLIC "-//W3C//DTD SVG 1.1//EN"
  "http://www.w3.org/Graphics/SVG/1.1/DTD/svg11.dtd">
<svg xmlns:xlink="http://www.w3.org/1999/xlink" width="515.618819pt" height="161.28708pt" viewBox="0 0 515.618819 161.28708" xmlns="http://www.w3.org/2000/svg" version="1.1">
 <metadata>
  <rdf:RDF xmlns:dc="http://purl.org/dc/elements/1.1/" xmlns:cc="http://creativecommons.org/ns#" xmlns:rdf="http://www.w3.org/1999/02/22-rdf-syntax-ns#">
   <cc:Work>
    <dc:type rdf:resource="http://purl.org/dc/dcmitype/StillImage"/>
    <dc:date>2026-05-11T12:18:18.949750</dc:date>
    <dc:format>image/svg+xml</dc:format>
    <dc:creator>
     <cc:Agent>
      <dc:title>Matplotlib v3.10.8, https://matplotlib.org/</dc:title>
     </cc:Agent>
    </dc:creator>
   </cc:Work>
  </rdf:RDF>
 </metadata>
 <defs>
  <style type="text/css">*{stroke-linejoin: round; stroke-linecap: butt}</style>
 </defs>
 <g id="figure_1">
  <g id="patch_1">
   <path d="M 0 161.28708 
L 515.618819 161.28708 
L 515.618819 0 
L 0 0 
z
" style="fill: #ffffff"/>
  </g>
  <g id="axes_1">
   <g id="patch_2">
    <path d="M 31.063525 147.265955 
L 258.936796 147.265955 
L 258.936796 16.998545 
L 31.063525 16.998545 
z
" style="fill: #ffffff"/>
   </g>
   <g id="line2d_1">
    <path d="M 31.063525 103.843485 
L 258.936796 103.843485 
" clip-path="url(#p1df1c89a19)" style="fill: none; stroke: #d8d8d8; stroke-width: 0.8; stroke-linecap: round"/>
   </g>
   <g id="matplotlib.axis_1">
    <g id="xtick_1">
     <g id="text_1">
      <text style="font-size: 6.8px; font-family: 'DejaVu Sans'; text-anchor: middle; fill: #333333" x="41.421401" y="158.432892" transform="rotate(-0 41.421401 158.432892)">BC</text>
     </g>
    </g>
    <g id="xtick_2">
     <g id="text_2">
      <text style="font-size: 6.8px; font-family: 'DejaVu Sans'; text-anchor: middle; fill: #333333" x="110.473908" y="158.432892" transform="rotate(-0 110.473908 158.432892)">BC-RNN</text>
     </g>
    </g>
    <g id="xtick_3">
     <g id="text_3">
      <text style="font-size: 6.8px; font-family: 'DejaVu Sans'; text-anchor: middle; fill: #333333" x="179.526414" y="158.432892" transform="rotate(-0 179.526414 158.432892)">ACT</text>
     </g>
    </g>
    <g id="xtick_4">
     <g id="text_4">
      <text style="font-size: 6.8px; font-family: 'DejaVu Sans'; text-anchor: middle; fill: #333333" x="248.57892" y="158.432892" transform="rotate(-0 248.57892 158.432892)">Diffusion</text>
     </g>
    </g>
   </g>
   <g id="matplotlib.axis_2">
    <g id="ytick_1">
     <g id="text_5">
      <text style="font-size: 6.8px; font-family: 'DejaVu Sans'; text-anchor: end; fill: #333333" x="25.063525" y="149.849423" transform="rotate(-0 25.063525 149.849423)">74</text>
     </g>
    </g>
    <g id="ytick_2">
     <g id="text_6">
      <text style="font-size: 6.8px; font-family: 'DejaVu Sans'; text-anchor: end; fill: #333333" x="25.063525" y="135.375267" transform="rotate(-0 25.063525 135.375267)">76</text>
     </g>
    </g>
    <g id="ytick_3">
     <g id="text_7">
      <text style="font-size: 6.8px; font-family: 'DejaVu Sans'; text-anchor: end; fill: #333333" x="25.063525" y="120.90111" transform="rotate(-0 25.063525 120.90111)">78</text>
     </g>
    </g>
    <g id="ytick_4">
     <g id="text_8">
      <text style="font-size: 6.8px; font-family: 'DejaVu Sans'; text-anchor: end; fill: #333333" x="25.063525" y="106.426953" transform="rotate(-0 25.063525 106.426953)">80</text>
     </g>
    </g>
    <g id="ytick_5">
     <g id="text_9">
      <text style="font-size: 6.8px; font-family: 'DejaVu Sans'; text-anchor: end; fill: #333333" x="25.063525" y="91.952797" transform="rotate(-0 25.063525 91.952797)">82</text>
     </g>
    </g>
    <g id="ytick_6">
     <g id="text_10">
      <text style="font-size: 6.8px; font-family: 'DejaVu Sans'; text-anchor: end; fill: #333333" x="25.063525" y="77.47864" transform="rotate(-0 25.063525 77.47864)">84</text>
     </g>
    </g>
    <g id="ytick_7">
     <g id="text_11">
      <text style="font-size: 6.8px; font-family: 'DejaVu Sans'; text-anchor: end; fill: #333333" x="25.063525" y="63.004483" transform="rotate(-0 25.063525 63.004483)">86</text>
     </g>
    </g>
    <g id="ytick_8">
     <g id="text_12">
      <text style="font-size: 6.8px; font-family: 'DejaVu Sans'; text-anchor: end; fill: #333333" x="25.063525" y="48.530327" transform="rotate(-0 25.063525 48.530327)">88</text>
     </g>
    </g>
    <g id="ytick_9">
     <g id="text_13">
      <text style="font-size: 6.8px; font-family: 'DejaVu Sans'; text-anchor: end; fill: #333333" x="25.063525" y="34.05617" transform="rotate(-0 25.063525 34.05617)">90</text>
     </g>
    </g>
    <g id="ytick_10">
     <g id="text_14">
      <text style="font-size: 6.8px; font-family: 'DejaVu Sans'; text-anchor: end; fill: #333333" x="25.063525" y="19.582013" transform="rotate(-0 25.063525 19.582013)">92</text>
     </g>
    </g>
    <g id="text_15">
     <text style="font-size: 7.5px; font-family: 'DejaVu Sans'; text-anchor: middle; fill: #222222" x="10.85076" y="82.13225" transform="rotate(-90 10.85076 82.13225)">Success rate (%)</text>
    </g>
   </g>
   <g id="LineCollection_1">
    <path d="M 41.421401 116.146518 
L 41.421401 43.052027 
" clip-path="url(#p1df1c89a19)" style="fill: none; stroke: #6e6e6e; stroke-width: 1.1"/>
   </g>
   <g id="LineCollection_2">
    <path d="M 110.473908 140.028876 
L 110.473908 61.86843 
" clip-path="url(#p1df1c89a19)" style="fill: none; stroke: #6e6e6e; stroke-width: 1.1"/>
   </g>
   <g id="LineCollection_3">
    <path d="M 179.526414 136.410337 
L 179.526414 58.249891 
" clip-path="url(#p1df1c89a19)" style="fill: none; stroke: #6e6e6e; stroke-width: 1.1"/>
   </g>
   <g id="LineCollection_4">
    <path d="M 248.57892 95.882698 
L 248.57892 27.130454 
" clip-path="url(#p1df1c89a19)" style="fill: none; stroke: #6e6e6e; stroke-width: 1.1"/>
   </g>
   <g id="patch_3">
    <path d="M 31.063525 147.265955 
L 31.063525 16.998545 
" style="fill: none; stroke: #333333; stroke-width: 0.7; stroke-linejoin: miter; stroke-linecap: square"/>
   </g>
   <g id="patch_4">
    <path d="M 31.063525 147.265955 
L 258.936796 147.265955 
" style="fill: none; stroke: #333333; stroke-width: 0.7; stroke-linejoin: miter; stroke-linecap: square"/>
   </g>
   <g id="PathCollection_1">
    <defs>
     <path id="ma4ad01f9b2" d="M 0 2.915476 
C 0.773193 2.915476 1.514823 2.608283 2.061553 2.061553 
C 2.608283 1.514823 2.915476 0.773193 2.915476 0 
C 2.915476 -0.773193 2.608283 -1.514823 2.061553 -2.061553 
C 1.514823 -2.608283 0.773193 -2.915476 0 -2.915476 
C -0.773193 -2.915476 -1.514823 -2.608283 -2.061553 -2.061553 
C -2.608283 -1.514823 -2.915476 -0.773193 -2.915476 0 
C -2.915476 0.773193 -2.608283 1.514823 -2.061553 2.061553 
C -1.514823 2.608283 -0.773193 2.915476 0 2.915476 
z
" style="stroke: #ffffff; stroke-width: 0.5"/>
    </defs>
    <g clip-path="url(#p1df1c89a19)">
     <use xlink:href="#ma4ad01f9b2" x="41.421401" y="74.895171" style="fill: #0072b2; stroke: #ffffff; stroke-width: 0.5"/>
    </g>
   </g>
   <g id="text_16">
    <text style="font-size: 6.5px; font-family: 'DejaVu Sans'; text-anchor: middle; fill: #222222" x="41.421401" y="66.306296" transform="rotate(-0 41.421401 66.306296)">84.0</text>
   </g>
   <g id="PathCollection_2">
    <defs>
     <path id="mbbac68de20" d="M 0 2.915476 
C 0.773193 2.915476 1.514823 2.608283 2.061553 2.061553 
C 2.608283 1.514823 2.915476 0.773193 2.915476 0 
C 2.915476 -0.773193 2.608283 -1.514823 2.061553 -2.061553 
C 1.514823 -2.608283 0.773193 -2.915476 0 -2.915476 
C -0.773193 -2.915476 -1.514823 -2.608283 -2.061553 -2.061553 
C -2.608283 -1.514823 -2.915476 -0.773193 -2.915476 0 
C -2.915476 0.773193 -2.608283 1.514823 -2.061553 2.061553 
C -1.514823 2.608283 -0.773193 2.915476 0 2.915476 
z
" style="stroke: #ffffff; stroke-width: 0.5"/>
    </defs>
    <g clip-path="url(#p1df1c89a19)">
     <use xlink:href="#mbbac68de20" x="110.473908" y="96.606406" style="fill: #56b4e9; stroke: #ffffff; stroke-width: 0.5"/>
    </g>
   </g>
   <g id="text_17">
    <text style="font-size: 6.5px; font-family: 'DejaVu Sans'; text-anchor: middle; fill: #222222" x="110.473908" y="88.017531" transform="rotate(-0 110.473908 88.017531)">81.0</text>
   </g>
   <g id="PathCollection_3">
    <defs>
     <path id="m18b6cde4ef" d="M 0 2.915476 
C 0.773193 2.915476 1.514823 2.608283 2.061553 2.061553 
C 2.608283 1.514823 2.915476 0.773193 2.915476 0 
C 2.915476 -0.773193 2.608283 -1.514823 2.061553 -2.061553 
C 1.514823 -2.608283 0.773193 -2.915476 0 -2.915476 
C -0.773193 -2.915476 -1.514823 -2.608283 -2.061553 -2.061553 
C -2.608283 -1.514823 -2.915476 -0.773193 -2.915476 0 
C -2.915476 0.773193 -2.608283 1.514823 -2.061553 2.061553 
C -1.514823 2.608283 -0.773193 2.915476 0 2.915476 
z
" style="stroke: #ffffff; stroke-width: 0.5"/>
    </defs>
    <g clip-path="url(#p1df1c89a19)">
     <use xlink:href="#m18b6cde4ef" x="179.526414" y="92.987867" style="fill: #e69f00; stroke: #ffffff; stroke-width: 0.5"/>
    </g>
   </g>
   <g id="text_18">
    <text style="font-size: 6.5px; font-family: 'DejaVu Sans'; text-anchor: middle; fill: #222222" x="179.526414" y="84.398992" transform="rotate(-0 179.526414 84.398992)">81.5</text>
   </g>
   <g id="PathCollection_4">
    <defs>
     <path id="m682265e60e" d="M 0 2.915476 
C 0.773193 2.915476 1.514823 2.608283 2.061553 2.061553 
C 2.608283 1.514823 2.915476 0.773193 2.915476 0 
C 2.915476 -0.773193 2.608283 -1.514823 2.061553 -2.061553 
C 1.514823 -2.608283 0.773193 -2.915476 0 -2.915476 
C -0.773193 -2.915476 -1.514823 -2.608283 -2.061553 -2.061553 
C -2.608283 -1.514823 -2.915476 -0.773193 -2.915476 0 
C -2.915476 0.773193 -2.608283 1.514823 -2.061553 2.061553 
C -1.514823 2.608283 -0.773193 2.915476 0 2.915476 
z
" style="stroke: #ffffff; stroke-width: 0.5"/>
    </defs>
    <g clip-path="url(#p1df1c89a19)">
     <use xlink:href="#m682265e60e" x="248.57892" y="56.802475" style="fill: #cc79a7; stroke: #ffffff; stroke-width: 0.5"/>
    </g>
   </g>
   <g id="text_19">
    <text style="font-size: 6.5px; font-family: 'DejaVu Sans'; text-anchor: middle; fill: #222222" x="248.57892" y="48.2136" transform="rotate(-0 248.57892 48.2136)">86.5</text>
   </g>
   <g id="text_20">
    <text style="font-weight: 700; font-size: 8px; font-family: 'DejaVu Sans'; text-anchor: start; fill: #222222" x="1.44" y="7.51875" transform="rotate(-0 1.44 7.51875)">a</text>
   </g>
  </g>
  <g id="axes_2">
   <g id="patch_5">
    <path d="M 297.713675 147.265955 
L 508.707445 147.265955 
L 508.707445 16.998545 
L 297.713675 16.998545 
z
" style="fill: #ffffff"/>
   </g>
   <g id="matplotlib.axis_3">
    <g id="xtick_5">
     <g id="text_21">
      <text style="font-size: 6.8px; font-family: 'DejaVu Sans'; text-anchor: middle; fill: #333333" x="307.304301" y="158.432892" transform="rotate(-0 307.304301 158.432892)">BC</text>
     </g>
    </g>
    <g id="xtick_6">
     <g id="text_22">
      <text style="font-size: 6.8px; font-family: 'DejaVu Sans'; text-anchor: middle; fill: #333333" x="371.241807" y="158.432892" transform="rotate(-0 371.241807 158.432892)">BC-RNN</text>
     </g>
    </g>
    <g id="xtick_7">
     <g id="text_23">
      <text style="font-size: 6.8px; font-family: 'DejaVu Sans'; text-anchor: middle; fill: #333333" x="435.179313" y="158.432892" transform="rotate(-0 435.179313 158.432892)">ACT</text>
     </g>
    </g>
    <g id="xtick_8">
     <g id="text_24">
      <text style="font-size: 6.8px; font-family: 'DejaVu Sans'; text-anchor: middle; fill: #333333" x="499.116819" y="158.432892" transform="rotate(-0 499.116819 158.432892)">Diffusion</text>
     </g>
    </g>
   </g>
   <g id="matplotlib.axis_4">
    <g id="ytick_11">
     <g id="text_25">
      <text style="font-size: 6.8px; font-family: 'DejaVu Sans'; text-anchor: end; fill: #333333" x="291.713675" y="149.849423" transform="rotate(-0 291.713675 149.849423)">0.0</text>
     </g>
    </g>
    <g id="ytick_12">
     <g id="text_26">
      <text style="font-size: 6.8px; font-family: 'DejaVu Sans'; text-anchor: end; fill: #333333" x="291.713675" y="122.424706" transform="rotate(-0 291.713675 122.424706)">0.2</text>
     </g>
    </g>
    <g id="ytick_13">
     <g id="text_27">
      <text style="font-size: 6.8px; font-family: 'DejaVu Sans'; text-anchor: end; fill: #333333" x="291.713675" y="94.999988" transform="rotate(-0 291.713675 94.999988)">0.4</text>
     </g>
    </g>
    <g id="ytick_14">
     <g id="text_28">
      <text style="font-size: 6.8px; font-family: 'DejaVu Sans'; text-anchor: end; fill: #333333" x="291.713675" y="67.57527" transform="rotate(-0 291.713675 67.57527)">0.6</text>
     </g>
    </g>
    <g id="ytick_15">
     <g id="text_29">
      <text style="font-size: 6.8px; font-family: 'DejaVu Sans'; text-anchor: end; fill: #333333" x="291.713675" y="40.150552" transform="rotate(-0 291.713675 40.150552)">0.8</text>
     </g>
    </g>
    <g id="text_30">
     <text style="font-size: 7.5px; font-family: 'DejaVu Sans'; text-anchor: middle; fill: #222222" x="275.339785" y="82.13225" transform="rotate(-90 275.339785 82.13225)">Final EE-cube distance (m)</text>
    </g>
   </g>
   <g id="line2d_2">
    <path d="M 307.304301 143.974989 
L 307.304301 26.91258 
" clip-path="url(#peda211c031)" style="fill: none; stroke: #d8d8d8; stroke-width: 2; stroke-linecap: round"/>
   </g>
   <g id="line2d_3">
    <path d="M 371.241807 143.892714 
L 371.241807 25.541344 
" clip-path="url(#peda211c031)" style="fill: none; stroke: #d8d8d8; stroke-width: 2; stroke-linecap: round"/>
   </g>
   <g id="line2d_4">
    <path d="M 435.179313 143.988701 
L 435.179313 25.774454 
" clip-path="url(#peda211c031)" style="fill: none; stroke: #d8d8d8; stroke-width: 2; stroke-linecap: round"/>
   </g>
   <g id="line2d_5">
    <path d="M 499.116819 144.153249 
L 499.116819 25.609906 
" clip-path="url(#peda211c031)" style="fill: none; stroke: #d8d8d8; stroke-width: 2; stroke-linecap: round"/>
   </g>
   <g id="PathCollection_5"/>
   <g id="PathCollection_6"/>
   <g id="PathCollection_7"/>
   <g id="patch_6">
    <path d="M 297.713675 147.265955 
L 297.713675 16.998545 
" style="fill: none; stroke: #333333; stroke-width: 0.7; stroke-linejoin: miter; stroke-linecap: square"/>
   </g>
   <g id="patch_7">
    <path d="M 297.713675 147.265955 
L 508.707445 147.265955 
" style="fill: none; stroke: #333333; stroke-width: 0.7; stroke-linejoin: miter; stroke-linecap: square"/>
   </g>
   <g id="PathCollection_8">
    <defs>
     <path id="md6e223abc3" d="M 0 2.54951 
C 0.676138 2.54951 1.324674 2.280877 1.802776 1.802776 
C 2.280877 1.324674 2.54951 0.676138 2.54951 0 
C 2.54951 -0.676138 2.280877 -1.324674 1.802776 -1.802776 
C 1.324674 -2.280877 0.676138 -2.54951 0 -2.54951 
C -0.676138 -2.54951 -1.324674 -2.280877 -1.802776 -1.802776 
C -2.280877 -1.324674 -2.54951 -0.676138 -2.54951 0 
C -2.54951 0.676138 -2.280877 1.324674 -1.802776 1.802776 
C -1.324674 2.280877 -0.676138 2.54951 0 2.54951 
z
" style="stroke: #ffffff; stroke-width: 0.5"/>
    </defs>
    <g clip-path="url(#peda211c031)">
     <use xlink:href="#md6e223abc3" x="307.304301" y="143.974989" style="fill: #0072b2; stroke: #ffffff; stroke-width: 0.5"/>
    </g>
   </g>
   <g id="PathCollection_9">
    <defs>
     <path id="mcfa566708f" d="M -0 3.316625 
L 3.316625 0 
L 0 -3.316625 
L -3.316625 -0 
z
" style="stroke: #0072b2"/>
    </defs>
    <g clip-path="url(#peda211c031)">
     <use xlink:href="#mcfa566708f" x="307.304301" y="129.700423" style="fill: #ffffff; stroke: #0072b2"/>
    </g>
   </g>
   <g id="PathCollection_10">
    <defs>
     <path id="m042eaab179" d="M 4.743416 0 
L -4.743416 -0 
" style="stroke: #0072b2; stroke-width: 1.4"/>
    </defs>
    <g clip-path="url(#peda211c031)">
     <use xlink:href="#m042eaab179" x="307.304301" y="26.91258" style="fill: #0072b2; stroke: #0072b2; stroke-width: 1.4"/>
    </g>
   </g>
   <g id="PathCollection_11">
    <defs>
     <path id="m69192504b5" d="M 0 2.54951 
C 0.676138 2.54951 1.324674 2.280877 1.802776 1.802776 
C 2.280877 1.324674 2.54951 0.676138 2.54951 0 
C 2.54951 -0.676138 2.280877 -1.324674 1.802776 -1.802776 
C 1.324674 -2.280877 0.676138 -2.54951 0 -2.54951 
C -0.676138 -2.54951 -1.324674 -2.280877 -1.802776 -1.802776 
C -2.280877 -1.324674 -2.54951 -0.676138 -2.54951 0 
C -2.54951 0.676138 -2.280877 1.324674 -1.802776 1.802776 
C -1.324674 2.280877 -0.676138 2.54951 0 2.54951 
z
" style="stroke: #ffffff; stroke-width: 0.5"/>
    </defs>
    <g clip-path="url(#peda211c031)">
     <use xlink:href="#m69192504b5" x="371.241807" y="143.892714" style="fill: #56b4e9; stroke: #ffffff; stroke-width: 0.5"/>
    </g>
   </g>
   <g id="PathCollection_12">
    <defs>
     <path id="m4f12a46711" d="M -0 3.316625 
L 3.316625 0 
L 0 -3.316625 
L -3.316625 -0 
z
" style="stroke: #56b4e9"/>
    </defs>
    <g clip-path="url(#peda211c031)">
     <use xlink:href="#m4f12a46711" x="371.241807" y="128.699421" style="fill: #ffffff; stroke: #56b4e9"/>
    </g>
   </g>
   <g id="PathCollection_13">
    <defs>
     <path id="mc29c25c364" d="M 4.743416 0 
L -4.743416 -0 
" style="stroke: #56b4e9; stroke-width: 1.4"/>
    </defs>
    <g clip-path="url(#peda211c031)">
     <use xlink:href="#mc29c25c364" x="371.241807" y="25.541344" style="fill: #56b4e9; stroke: #56b4e9; stroke-width: 1.4"/>
    </g>
   </g>
   <g id="PathCollection_14">
    <defs>
     <path id="m2151d6d089" d="M 0 2.54951 
C 0.676138 2.54951 1.324674 2.280877 1.802776 1.802776 
C 2.280877 1.324674 2.54951 0.676138 2.54951 0 
C 2.54951 -0.676138 2.280877 -1.324674 1.802776 -1.802776 
C 1.324674 -2.280877 0.676138 -2.54951 0 -2.54951 
C -0.676138 -2.54951 -1.324674 -2.280877 -1.802776 -1.802776 
C -2.280877 -1.324674 -2.54951 -0.676138 -2.54951 0 
C -2.54951 0.676138 -2.280877 1.324674 -1.802776 1.802776 
C -1.324674 2.280877 -0.676138 2.54951 0 2.54951 
z
" style="stroke: #ffffff; stroke-width: 0.5"/>
    </defs>
    <g clip-path="url(#peda211c031)">
     <use xlink:href="#m2151d6d089" x="435.179313" y="143.988701" style="fill: #e69f00; stroke: #ffffff; stroke-width: 0.5"/>
    </g>
   </g>
   <g id="PathCollection_15">
    <defs>
     <path id="m2bfff43c32" d="M -0 3.316625 
L 3.316625 0 
L 0 -3.316625 
L -3.316625 -0 
z
" style="stroke: #e69f00"/>
    </defs>
    <g clip-path="url(#peda211c031)">
     <use xlink:href="#m2bfff43c32" x="435.179313" y="125.627852" style="fill: #ffffff; stroke: #e69f00"/>
    </g>
   </g>
   <g id="PathCollection_16">
    <defs>
     <path id="mf702eb1f66" d="M 4.743416 0 
L -4.743416 -0 
" style="stroke: #e69f00; stroke-width: 1.4"/>
    </defs>
    <g clip-path="url(#peda211c031)">
     <use xlink:href="#mf702eb1f66" x="435.179313" y="25.774454" style="fill: #e69f00; stroke: #e69f00; stroke-width: 1.4"/>
    </g>
   </g>
   <g id="PathCollection_17">
    <defs>
     <path id="m14fca4b2db" d="M 0 2.54951 
C 0.676138 2.54951 1.324674 2.280877 1.802776 1.802776 
C 2.280877 1.324674 2.54951 0.676138 2.54951 0 
C 2.54951 -0.676138 2.280877 -1.324674 1.802776 -1.802776 
C 1.324674 -2.280877 0.676138 -2.54951 0 -2.54951 
C -0.676138 -2.54951 -1.324674 -2.280877 -1.802776 -1.802776 
C -2.280877 -1.324674 -2.54951 -0.676138 -2.54951 0 
C -2.54951 0.676138 -2.280877 1.324674 -1.802776 1.802776 
C -1.324674 2.280877 -0.676138 2.54951 0 2.54951 
z
" style="stroke: #ffffff; stroke-width: 0.5"/>
    </defs>
    <g clip-path="url(#peda211c031)">
     <use xlink:href="#m14fca4b2db" x="499.116819" y="144.153249" style="fill: #cc79a7; stroke: #ffffff; stroke-width: 0.5"/>
    </g>
   </g>
   <g id="PathCollection_18">
    <defs>
     <path id="m31cfb5b553" d="M -0 3.316625 
L 3.316625 0 
L 0 -3.316625 
L -3.316625 -0 
z
" style="stroke: #cc79a7"/>
    </defs>
    <g clip-path="url(#peda211c031)">
     <use xlink:href="#m31cfb5b553" x="499.116819" y="130.797412" style="fill: #ffffff; stroke: #cc79a7"/>
    </g>
   </g>
   <g id="PathCollection_19">
    <defs>
     <path id="m22d69c16e6" d="M 4.743416 0 
L -4.743416 -0 
" style="stroke: #cc79a7; stroke-width: 1.4"/>
    </defs>
    <g clip-path="url(#peda211c031)">
     <use xlink:href="#m22d69c16e6" x="499.116819" y="25.609906" style="fill: #cc79a7; stroke: #cc79a7; stroke-width: 1.4"/>
    </g>
   </g>
   <g id="text_31">
    <text style="font-weight: 700; font-size: 8px; font-family: 'DejaVu Sans'; text-anchor: start; fill: #222222" x="270.284485" y="7.51875" transform="rotate(-0 270.284485 7.51875)">b</text>
   </g>
   <g id="legend_1">
    <g id="PathCollection_20">
     <defs>
      <path id="m7802594291" d="M 0 2.44949 
C 0.649612 2.44949 1.272706 2.191396 1.732051 1.732051 
C 2.191396 1.272706 2.44949 0.649612 2.44949 0 
C 2.44949 -0.649612 2.191396 -1.272706 1.732051 -1.732051 
C 1.272706 -2.191396 0.649612 -2.44949 0 -2.44949 
C -0.649612 -2.44949 -1.272706 -2.191396 -1.732051 -1.732051 
C -2.191396 -1.272706 -2.44949 -0.649612 -2.44949 0 
C -2.44949 0.649612 -2.191396 1.272706 -1.732051 1.732051 
C -1.272706 2.191396 -0.649612 2.44949 0 2.44949 
z
" style="stroke: #6e6e6e; stroke-width: 0.8"/>
     </defs>
     <g>
      <use xlink:href="#m7802594291" x="310.633675" y="9.565719" style="fill: #6e6e6e; stroke: #6e6e6e; stroke-width: 0.8"/>
     </g>
    </g>
    <g id="text_32">
     <text style="font-size: 6.8px; font-family: 'DejaVu Sans'; text-anchor: start; fill: #222222" x="320.153675" y="11.350719" transform="rotate(-0 320.153675 11.350719)">median</text>
    </g>
    <g id="PathCollection_21">
     <defs>
      <path id="m5ec9bb22da" d="M -0 3.316625 
L 3.316625 0 
L 0 -3.316625 
L -3.316625 -0 
z
" style="stroke: #6e6e6e; stroke-width: 0.8"/>
     </defs>
     <g>
      <use xlink:href="#m5ec9bb22da" x="357.884113" y="9.565719" style="fill: #ffffff; stroke: #6e6e6e; stroke-width: 0.8"/>
     </g>
    </g>
    <g id="text_33">
     <text style="font-size: 6.8px; font-family: 'DejaVu Sans'; text-anchor: start; fill: #222222" x="367.404113" y="11.350719" transform="rotate(-0 367.404113 11.350719)">mean</text>
    </g>
    <g id="PathCollection_22">
     <defs>
      <path id="m64e979d12c" d="M 4.1833 0 
L -4.1833 -0 
" style="stroke: #6e6e6e; stroke-width: 1.2"/>
     </defs>
     <g>
      <use xlink:href="#m64e979d12c" x="398.928488" y="9.565719" style="fill: #6e6e6e; stroke: #6e6e6e; stroke-width: 1.2"/>
     </g>
    </g>
    <g id="text_34">
     <text style="font-size: 6.8px; font-family: 'DejaVu Sans'; text-anchor: start; fill: #222222" x="408.448488" y="11.350719" transform="rotate(-0 408.448488 11.350719)">p95</text>
    </g>
   </g>
  </g>
 </g>
 <defs>
  <clipPath id="p1df1c89a19">
   <rect x="31.063525" y="16.998545" width="227.873271" height="130.26741"/>
  </clipPath>
  <clipPath id="peda211c031">
   <rect x="297.713675" y="16.998545" width="210.99377" height="130.26741"/>
  </clipPath>
 </defs>
</svg>
